<?xml version="1.0" encoding="utf-8"?>
<!-- Generator: Adobe Illustrator 23.0.4, SVG Export Plug-In . SVG Version: 6.00 Build 0)  -->
<svg version="1.1"
	 id="Layer_1" inkscape:version="0.92.4 (33fec40, 2019-01-16)" sodipodi:docname="menubar_icon_paused-symbolic.svg" xmlns:cc="http://creativecommons.org/ns#" xmlns:dc="http://purl.org/dc/elements/1.1/" xmlns:inkscape="http://www.inkscape.org/namespaces/inkscape" xmlns:rdf="http://www.w3.org/1999/02/22-rdf-syntax-ns#" xmlns:sodipodi="http://sodipodi.sourceforge.net/DTD/sodipodi-0.dtd" xmlns:svg="http://www.w3.org/2000/svg"
	 xmlns="http://www.w3.org/2000/svg" xmlns:xlink="http://www.w3.org/1999/xlink" x="0px" y="0px" viewBox="0 0 16 16"
	 style="enable-background:new 0 0 16 16;" xml:space="preserve">
<style type="text/css">
	.st0{fill:#BEBEBE;}
	.st1{opacity:0.5;fill:#BEBEBE;enable-background:new    ;}
</style>
<sodipodi:namedview  bordercolor="#666666" borderopacity="1" gridtolerance="10" guidetolerance="10" id="namedview11" inkscape:current-layer="Layer_1" inkscape:cx="5.3220339" inkscape:cy="8" inkscape:pageopacity="0" inkscape:pageshadow="2" inkscape:window-height="1685" inkscape:window-maximized="0" inkscape:window-width="1373" inkscape:window-x="134" inkscape:window-y="55" inkscape:zoom="14.75" objecttolerance="10" pagecolor="#ffffff" showgrid="false" units="pt">
	</sodipodi:namedview>
<path id="path4" inkscape:connector-curvature="0" class="st0" d="M6.7,3.5C6.3,3.5,6,3.7,6,4.1v7.8c0,0.4,0.3,0.7,0.7,0.7
	s0.7-0.4,0.7-0.8V4.1C7.3,3.7,7.1,3.5,6.7,3.5z M9.3,3.5c-0.4,0-0.7,0.3-0.7,0.7v7.8c0,0.4,0.3,0.7,0.7,0.7s0.7-0.4,0.7-0.8V4.1
	C10,3.7,9.7,3.5,9.3,3.5z"/>
<path id="path8" inkscape:connector-curvature="0" class="st1" d="M8,15.2c-1.9,0-3.7-0.8-5.1-2.1C1.6,11.7,0.8,9.9,0.8,8
	s0.8-3.7,2.1-5.1C4.3,1.6,6.1,0.8,8,0.8s3.7,0.8,5.1,2.1c1.3,1.4,2.1,3.2,2.1,5.1s-0.8,3.7-2.1,5.1S9.9,15.2,8,15.2z M8,2.1
	C4.8,2.1,2.1,4.8,2.1,8s2.7,5.9,5.9,5.9s5.9-2.7,5.9-5.9S11.2,2.1,8,2.1z"/>
</svg>
