<?xml version="1.0" encoding="utf-8"?>
<!-- Generator: Adobe Illustrator 23.0.4, SVG Export Plug-In . SVG Version: 6.00 Build 0)  -->
<svg version="1.1"
	 id="Layer_1" inkscape:version="0.92.4 (33fec40, 2019-01-16)" sodipodi:docname="menubar_icon_error-symbolic.svg" xmlns:cc="http://creativecommons.org/ns#" xmlns:dc="http://purl.org/dc/elements/1.1/" xmlns:inkscape="http://www.inkscape.org/namespaces/inkscape" xmlns:rdf="http://www.w3.org/1999/02/22-rdf-syntax-ns#" xmlns:sodipodi="http://sodipodi.sourceforge.net/DTD/sodipodi-0.dtd" xmlns:svg="http://www.w3.org/2000/svg"
	 xmlns="http://www.w3.org/2000/svg" xmlns:xlink="http://www.w3.org/1999/xlink" x="0px" y="0px" viewBox="0 0 12 12"
	 style="enable-background:new 0 0 12 12;" xml:space="preserve">
<style type="text/css">
	.st0{opacity:0.5;fill:#BEBEBE;enable-background:new    ;}
	.st1{fill:#BEBEBE;}
</style>
<sodipodi:namedview  bordercolor="#666666" borderopacity="1" gridtolerance="10" guidetolerance="10" id="namedview11" inkscape:current-layer="Layer_1" inkscape:cx="-48.847459" inkscape:cy="8" inkscape:pageopacity="0" inkscape:pageshadow="2" inkscape:window-height="1689" inkscape:window-maximized="1" inkscape:window-width="2746" inkscape:window-x="134" inkscape:window-y="55" inkscape:zoom="14.75" objecttolerance="10" pagecolor="#ffffff" showgrid="false" units="pt">
	</sodipodi:namedview>
<path id="path4" inkscape:connector-curvature="0" class="st0" d="M6,11.4c-1.4,0-2.8-0.6-3.8-1.6C1.2,8.8,0.6,7.4,0.6,6
	s0.6-2.8,1.6-3.8c1.1-1,2.4-1.6,3.8-1.6s2.8,0.6,3.8,1.6c1,1.1,1.6,2.4,1.6,3.8s-0.6,2.8-1.6,3.8S7.4,11.4,6,11.4z M6,1.6
	c-2.4,0-4.4,2-4.4,4.4s2,4.4,4.4,4.4s4.4-2,4.4-4.4S8.4,1.6,6,1.6z"/>
<path id="path6" inkscape:connector-curvature="0" class="st1" d="M3.9,3.4c-0.1,0-0.2,0.1-0.4,0.2c-0.2,0.2-0.2,0.5,0,0.7L5.3,6
	L3.6,7.7c-0.2,0.2-0.2,0.5,0,0.7c0.1,0.1,0.2,0.1,0.4,0.1c0.1,0,0.3-0.1,0.4-0.1L6,6.7l1.7,1.7c0.1,0.1,0.2,0.1,0.4,0.1
	c0.1,0,0.2-0.1,0.4-0.1c0.2-0.2,0.2-0.5,0-0.7L6.7,6l1.7-1.7c0.2-0.2,0.2-0.5,0-0.7c-0.2-0.2-0.5-0.2-0.7,0L6,5.3L4.3,3.6
	C4.2,3.5,4.1,3.4,3.9,3.4z"/>
</svg>
