<?xml version="1.0" encoding="utf-8"?>
<!-- Generator: Adobe Illustrator 23.0.4, SVG Export Plug-In . SVG Version: 6.00 Build 0)  -->
<svg version="1.1"
	 id="svg4008" xmlns:cc="http://creativecommons.org/ns#" xmlns:dc="http://purl.org/dc/elements/1.1/" xmlns:inkscape="http://www.inkscape.org/namespaces/inkscape" xmlns:rdf="http://www.w3.org/1999/02/22-rdf-syntax-ns#" xmlns:sodipodi="http://sodipodi.sourceforge.net/DTD/sodipodi-0.dtd" xmlns:svg="http://www.w3.org/2000/svg"
	 xmlns="http://www.w3.org/2000/svg" xmlns:xlink="http://www.w3.org/1999/xlink" x="0px" y="0px" viewBox="0 0 16 16"
	 style="enable-background:new 0 0 16 16;" xml:space="preserve">
<style type="text/css">
	.st0{fill:#BEBEBE;}
</style>
<sodipodi:namedview  bordercolor="#666666" borderopacity="1" gridtolerance="10" guidetolerance="10" id="namedview1932" inkscape:current-layer="svg4008" inkscape:cx="-10.949153" inkscape:cy="8" inkscape:pageopacity="0" inkscape:pageshadow="2" inkscape:window-height="1689" inkscape:window-maximized="1" inkscape:window-width="2746" inkscape:window-x="134" inkscape:window-y="55" inkscape:zoom="14.75" objecttolerance="10" pagecolor="#ffffff" showgrid="false">
	</sodipodi:namedview>
<g id="layer1" transform="matrix(1.0526857,0,0,1.0526857,-0.42148548,-0.42148548)">
	<path id="path4" inkscape:connector-curvature="0" class="st0" d="M5.9,4.3l0.2,0.8L6,5.2C4.9,5.9,4.4,7.3,4.3,9H5
		c0.1-0.7,0.2-1.3,0.5-2C5.7,6.6,6,6.2,6.4,5.9l0.3,0.9l2.2-2.1L5.9,4.3z M10.9,7c0,0.8-0.2,1.4-0.4,2c-0.3,0.4-0.5,0.9-1,1.2
		l-0.3-1l-2.2,2l3,0.5l-0.3-0.9l0.1,0c1.2-0.7,1.7-2,1.8-3.7H10.9z"/>
</g>
<path id="path4_1_" inkscape:connector-curvature="0" class="st0" d="M8,14.5c-1.7,0-3.3-0.7-4.6-1.9C2.2,11.3,1.5,9.7,1.5,8
	s0.7-3.3,1.9-4.6C4.7,2.2,6.3,1.5,8,1.5s3.3,0.7,4.6,1.9c1.2,1.3,1.9,2.9,1.9,4.6s-0.7,3.3-1.9,4.6C11.3,13.8,9.7,14.5,8,14.5z
	 M8,2.7c-1.3,0-2.7,0.5-3.8,1.5c-2.1,2.1-2.1,5.5,0,7.5c1.1,1.1,2.3,1.6,3.8,1.6s2.7-0.5,3.8-1.5c2.1-2.1,2.1-5.4,0-7.4l0,0
	C10.7,3.3,9.4,2.7,8,2.7z"/>
</svg>
