<?xml version="1.0" encoding="utf-8"?>
<!-- Generator: Adobe Illustrator 23.0.4, SVG Export Plug-In . SVG Version: 6.00 Build 0)  -->
<svg version="1.1"
	 id="svg4008" inkscape:version="0.92.4 (33fec40, 2019-01-16)" sodipodi:docname="menubar_icon_syncing-symbolic.svg" xmlns:cc="http://creativecommons.org/ns#" xmlns:dc="http://purl.org/dc/elements/1.1/" xmlns:inkscape="http://www.inkscape.org/namespaces/inkscape" xmlns:rdf="http://www.w3.org/1999/02/22-rdf-syntax-ns#" xmlns:sodipodi="http://sodipodi.sourceforge.net/DTD/sodipodi-0.dtd" xmlns:svg="http://www.w3.org/2000/svg"
	 xmlns="http://www.w3.org/2000/svg" xmlns:xlink="http://www.w3.org/1999/xlink" x="0px" y="0px" viewBox="0 0 16 16"
	 style="enable-background:new 0 0 16 16;" xml:space="preserve">
<style type="text/css">
	.st0{fill:#BEBEBE;}
</style>
<sodipodi:namedview  bordercolor="#666666" borderopacity="1" gridtolerance="10" guidetolerance="10" id="namedview1932" inkscape:current-layer="svg4008" inkscape:cx="-10.949153" inkscape:cy="8" inkscape:pageopacity="0" inkscape:pageshadow="2" inkscape:window-height="1689" inkscape:window-maximized="1" inkscape:window-width="2746" inkscape:window-x="134" inkscape:window-y="55" inkscape:zoom="14.75" objecttolerance="10" pagecolor="#ffffff" showgrid="false">
	</sodipodi:namedview>
<g id="layer1" transform="matrix(1.0526857,0,0,1.0526857,-0.42148548,-0.42148548)">
	<path id="path4" inkscape:connector-curvature="0" class="st0" d="M8,1.2c-1.8,0-3.5,0.7-4.9,2c-1.3,1.3-2,3.1-2,4.9s0.7,3.5,2,4.9
		c1.3,1.3,3.1,2,4.9,2s3.5-0.7,4.9-2c1.3-1.3,2-3.1,2-4.9s-0.7-3.5-2-4.9C11.5,1.9,9.8,1.2,8,1.2z M8,2.4c1.5,0,2.9,0.6,4,1.7
		c2.2,2.2,2.2,5.7,0,7.8c-1.1,1.1-2.4,1.6-4,1.6S5.1,13,4,12C1.9,9.8,1.9,6.2,4,4C5.1,3,6.6,2.4,8,2.4z M5.7,3.9L6,4.9l0,0H5.8
		C4.6,5.7,4,7.2,3.9,9.1h0.8c0.1-0.8,0.2-1.5,0.5-2.2c0.2-0.5,0.6-0.9,1-1.2l0.3,1L9,4.4L5.7,3.9z M11.2,6.9c0,0.9-0.2,1.6-0.4,2.2
		c-0.3,0.5-0.6,1-1.1,1.3L9.4,9.3l-2.5,2.2l3.3,0.6l-0.3-1.1l0,0h0.1c1.3-0.8,1.9-2.2,2-4.1L11.2,6.9z"/>
</g>
</svg>
