<?xml version="1.0" encoding="utf-8"?>
<!-- Generator: Adobe Illustrator 24.0.1, SVG Export Plug-In . SVG Version: 6.00 Build 0)  -->
<svg version="1.1"
	 id="Layer_1" xmlns:cc="http://creativecommons.org/ns#" xmlns:dc="http://purl.org/dc/elements/1.1/" xmlns:inkscape="http://www.inkscape.org/namespaces/inkscape" xmlns:rdf="http://www.w3.org/1999/02/22-rdf-syntax-ns#" xmlns:sodipodi="http://sodipodi.sourceforge.net/DTD/sodipodi-0.dtd" xmlns:svg="http://www.w3.org/2000/svg"
	 xmlns="http://www.w3.org/2000/svg" xmlns:xlink="http://www.w3.org/1999/xlink" x="0px" y="0px" viewBox="0 0 16 16"
	 style="enable-background:new 0 0 16 16;" xml:space="preserve">
<style type="text/css">
	.st0{fill:#BEBEBE;}
</style>
<g>
	<path class="st0" d="M11.3,14.5c-0.8,0-1.1-0.6-1.2-1.1c0-0.1,0-0.2,0.3-0.2h1.9c0.3,0,0.3,0.1,0.3,0.2
		C12.5,13.9,12.1,14.5,11.3,14.5z"/>
	<path class="st0" d="M7.8,12.5C7.8,12.5,7.8,12.4,7.8,12.5c0.4-0.1,0.6-0.7,0.7-1.7c0.2-1.5,0.6-3.5,2.9-3.5s2.6,2,2.9,3.5
		c0.2,1,0.3,1.6,0.7,1.7l0,0c0,0.1,0,0.2,0,0.3l0,0H7.8l0,0V12.5z"/>
</g>
<path class="st0" d="M9.4,13.5L9.4,13.5c0,0-2.2,0-2.3-0.1c0,0,0-0.1,0-0.2c-1.1-0.2-2-0.7-2.9-1.5c-2.1-2-2.1-5.4,0-7.5
	c1.1-1,2.5-1.5,3.8-1.5c1.4,0,2.7,0.6,3.8,1.7c0.8,0.8,1.3,1.7,1.5,2.7c0.6,0.4,0.9,1,1.2,1.5c0-0.2,0-0.5,0-0.7
	c0-1.7-0.7-3.3-1.9-4.6C11.3,2.2,9.7,1.5,8,1.5S4.7,2.2,3.4,3.4C2.2,4.7,1.5,6.3,1.5,8s0.7,3.3,1.9,4.6c1.3,1.2,2.9,1.9,4.6,1.9
	c0.6,0,1.1-0.1,1.7-0.2C9.6,14.1,9.5,13.8,9.4,13.5z"/>
<g>
	<path class="st0" d="M7.4,8.3C7.3,8.5,7.5,8.8,7.7,8.9C7.9,9,8,9,8.2,9c0.1-0.3,0.2-0.6,0.4-0.9C8.4,8.1,8.2,8.1,8,8
		C7.8,7.9,7.5,8,7.4,8.3z"/>
	<path class="st0" d="M8.4,6.9c-0.1,0.2,0,0.5,0.3,0.5C8.8,7.5,8.9,7.5,9,7.5C9.2,7.3,9.4,7.1,9.7,7C9.5,6.9,9.3,6.8,9,6.7
		C8.8,6.5,8.5,6.7,8.4,6.9z"/>
	<path class="st0" d="M7.1,6.6c0.6-0.5,1-0.7,1.1-0.7c0.1,0,0.5-0.1,2,0.7c0.1,0,0.1,0.1,0.2,0.1c0.3-0.1,0.6-0.1,1-0.1
		c0.3,0,0.7,0,0.9,0.1c-0.4-0.3-1-0.7-1.5-1C9.6,5,8.6,4.8,8.1,4.9C7.6,5,7,5.5,6.5,5.9C5.5,6.7,4.3,8,3.6,9.4
		c-0.1,0.2,0,0.5,0.2,0.6c0.1,0.1,0.1,0.1,0.2,0.1c0.2,0,0.3-0.1,0.4-0.3C5.1,8.6,6.3,7.3,7.1,6.6z"/>
	<path class="st0" d="M8.1,9.4c-0.4,0-0.8-0.1-1.2-0.3C6.7,9,6.4,9.1,6.3,9.3c-0.1,0.3,0,0.5,0.3,0.6c0.4,0.2,0.8,0.3,1.3,0.4
		C7.9,10,8,9.7,8.1,9.4z"/>
</g>
</svg>
