<?xml version="1.0" encoding="utf-8"?>
<!-- Generator: Adobe Illustrator 23.0.4, SVG Export Plug-In . SVG Version: 6.00 Build 0)  -->
<svg version="1.1"
	 id="Layer_1" xmlns:cc="http://creativecommons.org/ns#" xmlns:dc="http://purl.org/dc/elements/1.1/" xmlns:inkscape="http://www.inkscape.org/namespaces/inkscape" xmlns:rdf="http://www.w3.org/1999/02/22-rdf-syntax-ns#" xmlns:sodipodi="http://sodipodi.sourceforge.net/DTD/sodipodi-0.dtd" xmlns:svg="http://www.w3.org/2000/svg"
	 xmlns="http://www.w3.org/2000/svg" xmlns:xlink="http://www.w3.org/1999/xlink" x="0px" y="0px" viewBox="0 0 16 16"
	 style="enable-background:new 0 0 16 16;" xml:space="preserve">
<style type="text/css">
	.st0{fill:#BEBEBE;}
	.st1{opacity:0.5;fill:#BEBEBE;enable-background:new    ;}
</style>
<sodipodi:namedview  bordercolor="#666666" borderopacity="1" gridtolerance="10" guidetolerance="10" id="namedview11" inkscape:current-layer="Layer_1" inkscape:cx="5.3220339" inkscape:cy="8" inkscape:pageopacity="0" inkscape:pageshadow="2" inkscape:window-height="1685" inkscape:window-maximized="0" inkscape:window-width="1373" inkscape:window-x="134" inkscape:window-y="55" inkscape:zoom="14.75" objecttolerance="10" pagecolor="#ffffff" showgrid="false" units="pt">
	</sodipodi:namedview>
<path id="path4" inkscape:connector-curvature="0" class="st0" d="M6.8,4C6.5,4,6.2,4.1,6.2,4.5v7c0,0.4,0.3,0.6,0.6,0.6
	s0.6-0.4,0.6-0.7V4.5C7.4,4.1,7.2,4,6.8,4z M9.2,4C8.8,4,8.5,4.2,8.5,4.6v7c0,0.4,0.3,0.6,0.6,0.6s0.6-0.4,0.6-0.7v-7
	C9.8,4.1,9.5,4,9.2,4z"/>
<path id="path8" inkscape:connector-curvature="0" class="st1" d="M8,14.5c-1.7,0-3.3-0.7-4.6-1.9C2.2,11.3,1.5,9.7,1.5,8
	s0.7-3.3,1.9-4.6C4.7,2.2,6.3,1.5,8,1.5s3.3,0.7,4.6,1.9c1.2,1.3,1.9,2.9,1.9,4.6s-0.7,3.3-1.9,4.6S9.7,14.5,8,14.5z M8,2.7
	C5.1,2.7,2.7,5.1,2.7,8s2.4,5.3,5.3,5.3s5.3-2.4,5.3-5.3S10.9,2.7,8,2.7z"/>
</svg>
