<?xml version="1.0" encoding="utf-8"?>
<!-- Generator: Adobe Illustrator 23.0.4, SVG Export Plug-In . SVG Version: 6.00 Build 0)  -->
<svg version="1.1"
	 id="Layer_1" xmlns:cc="http://creativecommons.org/ns#" xmlns:dc="http://purl.org/dc/elements/1.1/" xmlns:inkscape="http://www.inkscape.org/namespaces/inkscape" xmlns:rdf="http://www.w3.org/1999/02/22-rdf-syntax-ns#" xmlns:sodipodi="http://sodipodi.sourceforge.net/DTD/sodipodi-0.dtd" xmlns:svg="http://www.w3.org/2000/svg"
	 xmlns="http://www.w3.org/2000/svg" xmlns:xlink="http://www.w3.org/1999/xlink" x="0px" y="0px" viewBox="0 0 16 16"
	 style="enable-background:new 0 0 16 16;" xml:space="preserve">
<style type="text/css">
	.st0{fill:#BEBEBE;}
</style>
<sodipodi:namedview  bordercolor="#666666" borderopacity="1" gridtolerance="10" guidetolerance="10" id="namedview7" inkscape:current-layer="Layer_1" inkscape:cx="-29.898306" inkscape:cy="8" inkscape:pageopacity="0" inkscape:pageshadow="2" inkscape:window-height="1689" inkscape:window-maximized="1" inkscape:window-width="2746" inkscape:window-x="134" inkscape:window-y="55" inkscape:zoom="14.75" objecttolerance="10" pagecolor="#ffffff" showgrid="false" units="pt">
	</sodipodi:namedview>
<path id="path4" inkscape:connector-curvature="0" class="st0" d="M8,14.5c-1.7,0-3.3-0.7-4.6-1.9C2.2,11.3,1.5,9.7,1.5,8
	s0.7-3.3,1.9-4.6C4.7,2.2,6.3,1.5,8,1.5s3.3,0.7,4.6,1.9c1.2,1.3,1.9,2.9,1.9,4.6s-0.7,3.3-1.9,4.6C11.3,13.8,9.7,14.5,8,14.5z
	 M8,2.7c-1.3,0-2.7,0.5-3.8,1.5c-2.1,2.1-2.1,5.5,0,7.5c1.1,1.1,2.3,1.6,3.8,1.6s2.7-0.5,3.8-1.5c2.1-2.1,2.1-5.4,0-7.4l0,0
	C10.7,3.3,9.4,2.7,8,2.7z"/>
<g>
	<path class="st0" d="M4,10.1c-0.1,0-0.2,0-0.2-0.1C3.5,9.9,3.4,9.6,3.6,9.4C4.1,8.4,5,7.4,6.4,6C6.8,5.6,7.6,5.1,8,5
		c1.3-0.3,4.1,1.6,4.6,2.2c0.2,0.3,0.1,0.5,0,0.6c-0.2,0.4-0.7,0.4-1.2,0.4c-0.6,0-1.6-0.1-2.9-0.6C8.3,7.5,8.2,7.2,8.3,6.9
		c0.1-0.3,0.4-0.4,0.6-0.3c1.1,0.4,1.9,0.5,2.5,0.6c-0.9-0.6-2.6-1.6-3.1-1.4C8,5.8,7.6,6.1,6.9,6.7C5.7,7.9,4.8,9,4.3,9.8
		C4.3,10,4.1,10.1,4,10.1z"/>
	<path class="st0" d="M10.2,9.4H9.7C9.2,9.3,8.5,9.1,7.6,8.8C7.4,8.7,7.2,8.4,7.3,8.3C7.4,8,7.6,7.8,7.8,7.9c0.9,0.3,1.5,0.4,2,0.5
		H10c0.1-0.1,0.3-0.3,0.5-0.6c0.2-0.2,0.4-0.3,0.6-0.1c0.2,0.2,0.3,0.4,0.1,0.6c-0.3,0.4-0.5,0.7-0.8,0.9
		C10.3,9.4,10.2,9.4,10.2,9.4z"/>
	<path class="st0" d="M8.4,10.2c-0.4,0-1.3-0.2-2-0.4c-0.2,0-0.4-0.3-0.3-0.5C6.3,9.1,6.6,8.9,6.8,9c0.8,0.3,1.5,0.4,1.6,0.4
		C8.6,9.3,8.7,9.2,9,8.9c0.1,0,0.1-0.1,0.2-0.2c0.2-0.2,0.4-0.2,0.6,0c0.2,0.2,0.2,0.4,0,0.6c0,0-0.1,0.1-0.1,0.2
		c-0.3,0.3-0.5,0.5-1,0.7C8.6,10.2,8.5,10.2,8.4,10.2z"/>
</g>
</svg>
