<?xml version="1.0" encoding="utf-8"?>
<!-- Generator: Adobe Illustrator 23.0.4, SVG Export Plug-In . SVG Version: 6.00 Build 0)  -->
<svg version="1.1"
	 id="Layer_1" inkscape:version="0.92.4 (33fec40, 2019-01-16)" sodipodi:docname="menubar_icon_disconnected-symbolic.svg" xmlns:cc="http://creativecommons.org/ns#" xmlns:dc="http://purl.org/dc/elements/1.1/" xmlns:inkscape="http://www.inkscape.org/namespaces/inkscape" xmlns:rdf="http://www.w3.org/1999/02/22-rdf-syntax-ns#" xmlns:sodipodi="http://sodipodi.sourceforge.net/DTD/sodipodi-0.dtd" xmlns:svg="http://www.w3.org/2000/svg"
	 xmlns="http://www.w3.org/2000/svg" xmlns:xlink="http://www.w3.org/1999/xlink" x="0px" y="0px" viewBox="0 0 16 16"
	 style="enable-background:new 0 0 16 16;" xml:space="preserve">
<style type="text/css">
	.st0{opacity:0.5;fill:#BEBEBE;enable-background:new    ;}
	.st1{opacity:0.5;}
	.st2{fill:#BEBEBE;}
</style>
<sodipodi:namedview  bordercolor="#666666" borderopacity="1" gridtolerance="10" guidetolerance="10" id="namedview7" inkscape:current-layer="Layer_1" inkscape:cx="0.78293787" inkscape:cy="9.9175777" inkscape:pageopacity="0" inkscape:pageshadow="2" inkscape:window-height="1689" inkscape:window-maximized="1" inkscape:window-width="2746" inkscape:window-x="134" inkscape:window-y="55" inkscape:zoom="41.7193" objecttolerance="10" pagecolor="#ffffff" showgrid="false" units="pt">
	</sodipodi:namedview>
<path id="path4" inkscape:connector-curvature="0" class="st0" d="M8,15.2c-1.9,0-3.7-0.8-5.1-2.1C1.6,11.7,0.8,9.9,0.8,8
	s0.8-3.7,2.1-5.1C4.3,1.6,6.1,0.8,8,0.8s3.7,0.8,5.1,2.1c1.3,1.4,2.1,3.2,2.1,5.1s-0.8,3.7-2.1,5.1C11.7,14.4,9.9,15.2,8,15.2z
	 M8,2.1c-1.5,0-3,0.6-4.2,1.7c-2.3,2.3-2.3,6.1,0,8.3C5,13.3,6.4,13.9,8,13.9s3-0.6,4.2-1.7c2.3-2.3,2.3-6,0-8.2l0,0
	C11,2.8,9.6,2.1,8,2.1z"/>
<g class="st1">
	<path class="st2" d="M3.5,10.3c-0.1,0-0.2,0-0.2-0.1C3,10.1,2.9,9.8,3.1,9.6c0.6-1.1,1.6-2.3,3.1-3.8c0.5-0.5,1.3-1,1.8-1.1
		c1.4-0.3,4.6,1.8,5.1,2.5c0.2,0.3,0.1,0.6,0,0.7c-0.2,0.4-0.8,0.5-1.3,0.4c-0.7,0-1.8-0.1-3.2-0.7C8.3,7.4,8.2,7.1,8.3,6.8
		C8.4,6.5,8.7,6.4,9,6.5c1.2,0.5,2.1,0.6,2.8,0.7c-1-0.7-2.9-1.8-3.5-1.6C8,5.6,7.5,5.9,6.8,6.5C5.4,7.9,4.5,9.1,3.9,10
		C3.8,10.2,3.7,10.3,3.5,10.3z"/>
	<path class="st2" d="M10.4,9.5H9.9C9.3,9.4,8.6,9.2,7.6,8.9C7.3,8.8,7.1,8.5,7.2,8.3C7.3,8,7.6,7.8,7.8,7.9c1,0.3,1.7,0.5,2.2,0.6
		l0.2,0c0.1-0.1,0.3-0.3,0.6-0.7c0.2-0.2,0.5-0.3,0.7-0.1c0.2,0.2,0.3,0.5,0.1,0.7c-0.3,0.5-0.6,0.8-0.9,1
		C10.6,9.5,10.5,9.5,10.4,9.5z"/>
	<path class="st2" d="M8.5,10.5c-0.5,0-1.4-0.2-2.2-0.5C6.1,10,5.9,9.7,6,9.4C6.1,9.2,6.4,9,6.7,9.1c0.9,0.3,1.7,0.4,1.8,0.4
		c0.2-0.1,0.3-0.2,0.6-0.5C9.2,9,9.2,8.9,9.3,8.8c0.2-0.2,0.5-0.2,0.7,0c0.2,0.2,0.2,0.5,0,0.7C10,9.5,9.9,9.6,9.9,9.7
		c-0.3,0.3-0.5,0.6-1.1,0.8C8.7,10.5,8.6,10.5,8.5,10.5z"/>
</g>
</svg>
