<?xml version="1.0" encoding="utf-8"?>
<!-- Generator: Adobe Illustrator 23.0.4, SVG Export Plug-In . SVG Version: 6.00 Build 0)  -->
<svg version="1.1"
	 id="Layer_1" xmlns:cc="http://creativecommons.org/ns#" xmlns:dc="http://purl.org/dc/elements/1.1/" xmlns:inkscape="http://www.inkscape.org/namespaces/inkscape" xmlns:rdf="http://www.w3.org/1999/02/22-rdf-syntax-ns#" xmlns:sodipodi="http://sodipodi.sourceforge.net/DTD/sodipodi-0.dtd" xmlns:svg="http://www.w3.org/2000/svg"
	 xmlns="http://www.w3.org/2000/svg" xmlns:xlink="http://www.w3.org/1999/xlink" x="0px" y="0px" viewBox="0 0 12 12"
	 style="enable-background:new 0 0 12 12;" xml:space="preserve">
<style type="text/css">
	.st0{opacity:0.5;fill:#BEBEBE;enable-background:new    ;}
	.st1{fill:#BEBEBE;}
</style>
<sodipodi:namedview  bordercolor="#666666" borderopacity="1" gridtolerance="10" guidetolerance="10" id="namedview11" inkscape:current-layer="Layer_1" inkscape:cx="-48.847459" inkscape:cy="8" inkscape:pageopacity="0" inkscape:pageshadow="2" inkscape:window-height="1689" inkscape:window-maximized="1" inkscape:window-width="2746" inkscape:window-x="134" inkscape:window-y="55" inkscape:zoom="14.75" objecttolerance="10" pagecolor="#ffffff" showgrid="false" units="pt">
	</sodipodi:namedview>
<path id="path4" inkscape:connector-curvature="0" class="st0" d="M6,10.9c-1.3,0-2.5-0.5-3.4-1.4C1.7,8.5,1.1,7.3,1.1,6
	s0.5-2.5,1.4-3.4c1-0.9,2.2-1.4,3.4-1.4s2.5,0.5,3.4,1.4c0.9,1,1.4,2.2,1.4,3.4s-0.5,2.5-1.4,3.4C8.5,10.3,7.3,10.9,6,10.9z M6,2
	C3.8,2,2,3.8,2,6s1.8,4,4,4s4-1.8,4-4S8.2,2,6,2z"/>
<path id="path6" inkscape:connector-curvature="0" class="st1" d="M3.8,3.8C3.6,4,3.6,4.3,3.8,4.5L5.4,6L3.8,7.5
	C3.7,7.7,3.7,8,3.8,8.2c0.2,0.2,0.5,0.2,0.7,0L6,6.6c0,0,1.1,1.1,1.5,1.5c0.2,0.2,0.6,0.1,0.7,0c0.2-0.2,0.2-0.5,0-0.6L6.6,6
	l1.5-1.5c0.2-0.2,0.2-0.5,0-0.6C8,3.7,7.7,3.7,7.5,3.8L6,5.4L4.5,3.8C4.3,3.7,3.9,3.7,3.8,3.8z"/>
</svg>
