<?xml version="1.0" encoding="utf-8"?>
<!-- Generator: Adobe Illustrator 24.0.1, SVG Export Plug-In . SVG Version: 6.00 Build 0)  -->
<svg version="1.1"
	 id="Layer_1" xmlns:cc="http://creativecommons.org/ns#" xmlns:dc="http://purl.org/dc/elements/1.1/" xmlns:inkscape="http://www.inkscape.org/namespaces/inkscape" xmlns:rdf="http://www.w3.org/1999/02/22-rdf-syntax-ns#" xmlns:sodipodi="http://sodipodi.sourceforge.net/DTD/sodipodi-0.dtd" xmlns:svg="http://www.w3.org/2000/svg"
	 xmlns="http://www.w3.org/2000/svg" xmlns:xlink="http://www.w3.org/1999/xlink" x="0px" y="0px" viewBox="0 0 16 16"
	 style="enable-background:new 0 0 16 16;" xml:space="preserve">
<style type="text/css">
	.st0{fill:#BEBEBE;}
</style>
<sodipodi:namedview  bordercolor="#666666" borderopacity="1" gridtolerance="10" guidetolerance="10" id="namedview7" inkscape:current-layer="Layer_1" inkscape:cx="-29.898306" inkscape:cy="8" inkscape:pageopacity="0" inkscape:pageshadow="2" inkscape:window-height="1689" inkscape:window-maximized="1" inkscape:window-width="2746" inkscape:window-x="134" inkscape:window-y="55" inkscape:zoom="14.75" objecttolerance="10" pagecolor="#ffffff" showgrid="false" units="pt">
	</sodipodi:namedview>
<path id="path4" inkscape:connector-curvature="0" class="st0" d="M8,14.5c-1.7,0-3.3-0.7-4.6-1.9C2.2,11.3,1.5,9.7,1.5,8
	s0.7-3.3,1.9-4.6C4.7,2.2,6.3,1.5,8,1.5s3.3,0.7,4.6,1.9c1.2,1.3,1.9,2.9,1.9,4.6s-0.7,3.3-1.9,4.6C11.3,13.8,9.7,14.5,8,14.5z
	 M8,2.7c-1.3,0-2.7,0.5-3.8,1.5c-2.1,2.1-2.1,5.5,0,7.5c1.1,1.1,2.3,1.6,3.8,1.6s2.7-0.5,3.8-1.5c2.1-2.1,2.1-5.4,0-7.4l0,0
	C10.7,3.3,9.4,2.7,8,2.7z"/>
<g>
	<g>
		<path class="st0" d="M4,10.1c-0.1,0-0.1,0-0.2-0.1C3.6,9.9,3.5,9.6,3.6,9.4C4.3,8,5.5,6.7,6.5,5.9c0.5-0.4,1.1-0.9,1.6-1
			C8.6,4.8,9.6,5,10.8,5.7c0.8,0.4,1.7,1.1,2,1.4c0.2,0.3,0.1,0.5,0,0.6l0,0c-0.2,0.3-0.8,0.5-1.2,0.4c0,0-0.1,0-0.1,0
			c-0.6,0-1.6-0.1-2.8-0.7C8.4,7.4,8.3,7.1,8.4,6.9C8.5,6.7,8.8,6.5,9,6.7c1,0.5,1.9,0.5,2.4,0.6c-0.3-0.2-0.7-0.5-1.2-0.7
			c-1.5-0.8-1.9-0.7-2-0.7C8.1,5.9,7.7,6.1,7.1,6.6c-0.8,0.7-2,2-2.7,3.2C4.3,10,4.2,10.1,4,10.1z M12,7.2L12,7.2L12,7.2z"/>
		<path class="st0" d="M10,9.4c-0.1,0-0.2,0-0.3,0c-0.5-0.1-1.2-0.2-2-0.5C7.5,8.8,7.3,8.5,7.4,8.3C7.5,8,7.8,7.9,8,8
			c0.8,0.3,1.4,0.4,1.9,0.5c0.1,0,0.2,0,0.2,0c0.1-0.1,0.4-0.3,0.5-0.6c0.1-0.2,0.4-0.3,0.6-0.2c0.2,0.1,0.3,0.4,0.2,0.6
			c-0.1,0.2-0.5,0.7-0.9,0.9c0,0,0,0,0,0C10.3,9.3,10.2,9.4,10,9.4z M10.1,8.4L10.1,8.4L10.1,8.4z"/>
		<path class="st0" d="M8.4,10.3c-0.1,0-0.1,0-0.2,0c-0.5,0-1.1-0.2-1.6-0.4C6.3,9.8,6.2,9.6,6.3,9.3C6.4,9.1,6.7,9,6.9,9.1
			c0.4,0.2,0.9,0.3,1.3,0.3c0.2,0,0.3,0,0.4,0c0.1,0,0.3-0.2,0.7-0.7c0.2-0.2,0.5-0.2,0.7,0c0.2,0.2,0.2,0.5,0,0.7
			c-0.5,0.5-0.9,0.8-1.1,0.9h0C8.7,10.3,8.6,10.3,8.4,10.3z"/>
	</g>
</g>
</svg>
