<?xml version="1.0" encoding="utf-8"?>
<!-- Generator: Adobe Illustrator 23.0.4, SVG Export Plug-In . SVG Version: 6.00 Build 0)  -->
<svg version="1.1" xmlns="http://www.w3.org/2000/svg" xmlns:xlink="http://www.w3.org/1999/xlink" x="0px" y="0px"
	 viewBox="0 0 1024 1024" style="enable-background:new 0 0 1024 1024;" xml:space="preserve">
<style type="text/css">
	.st0{fill:url(#SVGID_1_);}
	.st1{fill:#DEDEDE;stroke:#787878;stroke-width:2;}
	.st2{fill:#CCECEC;stroke:#000000;stroke-width:11;stroke-linecap:round;stroke-linejoin:round;}
	.st3{fill:none;stroke:#000000;stroke-width:11;stroke-linecap:round;stroke-linejoin:round;}
	.st4{opacity:0.44;}
</style>
<g id="Layer_1">
	<g>
		
			<image style="overflow:visible;opacity:0.75;enable-background:new    ;" width="1042" height="1042" xlink:href="73F789D31D4228.png"  transform="matrix(1 0 0 1 -2 -2)">
		</image>
		<g>
			
				<linearGradient id="SVGID_1_" gradientUnits="userSpaceOnUse" x1="162.577" y1="347.4917" x2="861.423" y2="-251.4917" gradientTransform="matrix(1 0 0 1 0 464)">
				<stop  offset="0.3378" style="stop-color:#12454B"/>
				<stop  offset="0.4188" style="stop-color:#1B4C52"/>
				<stop  offset="0.5523" style="stop-color:#346064"/>
				<stop  offset="0.7217" style="stop-color:#5D8083"/>
				<stop  offset="0.9187" style="stop-color:#94ACAC"/>
				<stop  offset="0.9565" style="stop-color:#A0B5B5"/>
			</linearGradient>
			<circle class="st0" cx="512" cy="512" r="460.2"/>
		</g>
	</g>
	<path class="st1" d="M512,1001.7c-66,0-130.2-12.9-190.7-38.4c-58.3-24.6-110.6-59.9-155.6-104.9c-45-45.1-80.2-97.4-104.9-155.7
		C35.3,642.2,22.3,578,22.3,512s13-130.2,38.5-190.7c24.6-58.3,59.9-110.6,104.9-155.6s97.3-80.2,155.6-104.9
		C381.8,35.3,446,22.3,512,22.3c66,0,130.2,13,190.7,38.5c58.3,24.6,110.6,59.9,155.6,104.9c45,45,80.2,97.3,104.9,155.6
		c25.5,60.4,38.4,124.4,38.4,190.7c0,66-12.9,130.2-38.4,190.7c-24.6,58.3-59.9,110.6-104.9,155.6c-45,45-97.3,80.2-155.6,104.9
		C642.2,988.7,578,1001.7,512,1001.7z M512,67c-60,0-118.4,11.8-173.2,35c-53,22.4-100.6,54.5-141.5,95.4s-73,88.4-95.4,141.5
		C78.8,393.6,67,452,67,512s11.8,118.4,35,173.2c22.4,53,54.5,100.6,95.4,141.5c40.9,40.8,88.4,73,141.5,95.4
		c54.8,23.2,113.1,35,173.2,35s118.4-11.8,173.2-35c53-22.4,100.6-54.5,141.5-95.4s73-88.4,95.4-141.5c23.2-54.8,35-113.1,35-173.2
		s-11.8-118.4-35-173.2c-22.4-53-54.5-100.6-95.4-141.5s-88.4-73-141.5-95.4C630.4,78.8,572,67,512,67z"/>
	<g>
		
			<image style="overflow:visible;opacity:0.2;" width="909" height="494" xlink:href="73F789D31D4229.png"  transform="matrix(1 0 0 1 63 270)">
		</image>
		<g>
			<g>
				<g>
					<g>
						<g>
							<g>
								<g>
									<g>
										<g>
											<g>
												<path class="st2" d="M836,573.2l-5,6.1c-11.6,6.8-23.1,9.1-30.1,8.4c-6.9-0.8-13.6-2.3-21.1-5.4l-2.5,5
													c-9.3,9.3-16.2,9.2-23.4,8.5c-6.6-0.7-14.5-3.3-23-7.4v68.9l-219.4,75V440.7v-2.5L731,363.1v57.3
													c31.2-10.5,57.7-15.7,72.5-13.7c49.7,6.9,145.6,148.6,135.3,155.2c-1.2,0.8-7.1-1.3-16.5-6.7l-3.3,3.7
													c-9.3,9.4-16.2,9.3-23.4,8.5c-4.4-0.5-9.1-1.4-14.2-3.1l-3.1,6.1c-9.3,9.4-16.2,9.3-23.4,8.5
													C848.9,578.3,842.8,576.4,836,573.2z"/>
												<polygon class="st2" points="731,362.9 731,363.1 511.6,438.2 292.3,363.1 511.6,292.2 												"/>
												<path class="st2" d="M292.3,420.1v-57l219.4,75.1v2.5v291.5l-219.4-77.5v-66.1c-8.2,3.9-15.8,6.4-22.2,7
													c-7.1,0.8-14.1,0.9-23.4-8.5L227,587c-1.2,0.2-2.6,0.4-3.8,0.6c-7.1,0.8-18.7-1.4-30.1-8.4l-24.8-0.2
													c-6.6,0.6-13.4,0.3-22.1-8.6l-22.4-2.6c-5.6,0-11.4-1.6-18.4-8.8H95c-5.4,2.8-8.8,3.6-9.7,3
													C75,555.4,171,413.7,220.6,406.8C235.3,404.7,261.4,409.9,292.3,420.1z"/>
											</g>
											<g>
												<polyline class="st3" points="731,420.4 731,363.1 731,362.9 511.6,292.2 292.3,363.1 292.3,420.1 												"/>
												<polyline class="st3" points="292.3,588.6 292.3,654.6 511.6,732.1 731,657.1 731,588.2 												"/>
												<line class="st3" x1="511.6" y1="440.7" x2="511.6" y2="732.1"/>
												<line class="st3" x1="511.6" y1="438.2" x2="292.3" y2="363.1"/>
												<line class="st3" x1="511.6" y1="438.2" x2="731" y2="363.1"/>
												<path class="st3" d="M459.3,510.1c-45-38.3-113-72-167-90c-30.8-10.3-57-15.4-71.6-13.4C170.9,413.8,75,555.3,85.3,562
													c0.9,0.6,4.3-0.4,9.7-3c17.1-8.6,54.7-34.4,101.1-82.9"/>
												<path class="st3" d="M105.2,559c7.1,7.2,12.9,8.8,18.4,8.8c1.7,0,3.3-0.2,5-0.4c20.2-2.3,45.9-13.9,99.5-67.2"/>
												<path class="st3" d="M146.1,570.4c8.7,8.9,15.5,9.2,22.1,8.6c0.4,0,0.9-0.1,1.2-0.1c20.2-2.3,44.6-20.3,89.7-57.7"/>
												<path class="st3" d="M193,579.3c11.5,6.8,23.1,9.1,30.1,8.4c1.2-0.2,2.6-0.4,3.8-0.6c18.8-2.9,36.7-12.9,74.9-46.7"/>
												<path class="st3" d="M246.6,587.1c9.3,9.3,16.2,9.2,23.4,8.5c6.5-0.7,14-3.2,22.2-7c17.8-8.3,38-22.8,54.4-38.3"/>
												<path class="st3" d="M564.7,510.1c44.8-38.1,112.4-71.6,166.2-89.7c31.2-10.5,57.7-15.7,72.5-13.7
													c49.7,6.9,145.6,148.6,135.3,155.2c-1.2,0.8-7.1-1.3-16.5-6.7C903,544,868.8,518.8,828,476"/>
												<path class="st3" d="M918.9,559c-9.3,9.4-16.2,9.3-23.4,8.5c-4.4-0.5-9.1-1.4-14.2-3.1c-18.5-6.2-43.4-22.4-85.2-63.9"
													/>
												<path class="st3" d="M877.9,570.4c-9.3,9.4-16.2,9.3-23.4,8.5c-5.7-0.6-11.8-2.6-18.5-5.7
													c-17.1-8.2-38.9-25.1-71.2-51.9"/>
												<path class="st3" d="M831,579.3c-11.6,6.8-23.1,9.1-30.1,8.4c-6.9-0.8-13.6-2.3-21.1-5.4c-14.1-6.1-31-18-57.7-41.8"/>
												<path class="st3" d="M777.4,587.1c-9.3,9.3-16.2,9.2-23.4,8.5c-6.6-0.7-14.5-3.3-23-7.4c-17.5-8.4-37.5-22.6-53.7-37.9"
													/>
											</g>
										</g>
									</g>
								</g>
							</g>
						</g>
					</g>
				</g>
			</g>
		</g>
	</g>
</g>
<g id="Layer_2" class="st4">
</g>
</svg>
