<?xml version="1.0" encoding="utf-8"?>
<!-- Generator: Adobe Illustrator 23.0.4, SVG Export Plug-In . SVG Version: 6.00 Build 0)  -->
<svg version="1.1" id="Layer_1" xmlns="http://www.w3.org/2000/svg" xmlns:xlink="http://www.w3.org/1999/xlink" x="0px" y="0px"
	 viewBox="0 0 1024 1024" style="enable-background:new 0 0 1024 1024;" xml:space="preserve">
<style type="text/css">
	.st0{fill:url(#SVGID_1_);}
	.st1{fill:#DEDEDE;stroke:#787878;stroke-width:2;}
	.st2{fill:#CCECEC;stroke:#000000;stroke-width:11;stroke-linecap:round;stroke-linejoin:round;}
	.st3{fill:none;stroke:#000000;stroke-width:11;stroke-linecap:round;stroke-linejoin:round;}
</style>
<linearGradient id="SVGID_1_" gradientUnits="userSpaceOnUse" x1="144.2023" y1="595.2407" x2="879.7977" y2="-35.2407" gradientTransform="matrix(1 0 0 1 0 232)">
	<stop  offset="0.3378" style="stop-color:#12454B"/>
	<stop  offset="0.4188" style="stop-color:#1B4C52"/>
	<stop  offset="0.5523" style="stop-color:#346064"/>
	<stop  offset="0.7217" style="stop-color:#5D8083"/>
	<stop  offset="0.9187" style="stop-color:#94ACAC"/>
	<stop  offset="0.9565" style="stop-color:#A0B5B5"/>
</linearGradient>
<ellipse class="st0" cx="512" cy="512" rx="484.4" ry="484.4"/>
<path class="st1" d="M512,1012.4c-67.5,0-133.1-13.2-194.8-39.3c-59.6-25.2-113.1-61.3-159.1-107.2c-46-46-82-99.5-107.2-159.1
	C24.8,645.1,11.6,579.5,11.6,512s13.2-133.1,39.3-194.8c25.2-59.6,61.3-113.1,107.2-159.1s99.5-82,159.1-107.2
	C378.9,24.8,444.5,11.6,512,11.6s133.1,13.2,194.8,39.3c59.6,25.2,113.1,61.3,159.1,107.2c46,46,82,99.5,107.2,159.1
	c26.1,61.7,39.3,127.2,39.3,194.8c0,67.5-13.2,133.1-39.3,194.8c-25.2,59.6-61.3,113.1-107.2,159.1c-46,46-99.5,82-159.1,107.2
	C645.1,999.2,579.5,1012.4,512,1012.4z M512,43.6c-63.2,0-124.6,12.4-182.3,36.8c-55.8,23.6-105.9,57.4-148.9,100.4
	S104,273.9,80.4,329.7C56,387.4,43.6,448.8,43.6,512S56,636.6,80.4,694.3c23.6,55.8,57.4,105.9,100.4,148.9
	c43,43,93.1,76.8,148.9,100.4c57.7,24.4,119.1,36.8,182.3,36.8s124.6-12.4,182.3-36.8c55.8-23.6,105.9-57.4,148.9-100.4
	s76.8-93.1,100.4-148.9c24.4-57.7,36.8-119.1,36.8-182.3S968,387.4,943.6,329.7c-23.6-55.8-57.4-105.9-100.4-148.9
	S750.1,104,694.3,80.4C636.6,56,575.2,43.6,512,43.6z"/>
<g>
	<g>
		<g>
			
				<image style="overflow:visible;opacity:0.75;" width="942" height="505" xlink:href="73F789D31D422B.png"  transform="matrix(1 0 0 1 48 267)">
			</image>
			<g>
				<g>
					<g>
						<g>
							<g>
								<g>
									<g>
										<path class="st2" d="M853.1,576.4l-5.3,6.4c-12.2,7.2-24.3,9.6-31.7,8.8c-7.3-0.8-14.3-2.4-22.2-5.7l-2.6,5.3
											c-9.8,9.8-17.1,9.7-24.6,8.9c-6.9-0.7-15.3-3.5-24.2-7.8v72.5l-230.9,78.9V436.9v-2.6l230.9-79v60.3
											c32.8-11,60.7-16.5,76.3-14.4c52.3,7.3,153.3,156.4,142.4,163.4c-1.3,0.8-7.5-1.4-17.4-7.1l-3.5,3.9
											c-9.8,9.9-17.1,9.8-24.6,9c-4.6-0.5-9.6-1.5-15-3.3l-3.3,6.4c-9.8,9.9-17.1,9.8-24.6,9
											C866.6,581.8,860.2,579.8,853.1,576.4z"/>
										<polygon class="st2" points="742.5,355.1 742.5,355.3 511.6,434.3 280.7,355.3 511.6,280.6 										"/>
										<path class="st2" d="M280.7,415.3v-60l230.9,79v2.6v306.8l-230.9-81.6v-69.6c-8.6,4.1-16.6,6.7-23.4,7.4
											c-7.5,0.8-14.8,0.9-24.6-8.9l-20.7-0.1c-1.3,0.2-2.7,0.4-4,0.6c-7.5,0.8-19.7-1.5-31.7-8.8l-26.1-0.2
											c-7,0.6-14.1,0.3-23.3-9.1l-23.6-2.7c-5.9,0-12-1.7-19.4-9.3H73.1c-5.7,2.9-9.3,3.8-10.2,3.2
											c-10.8-6.9,90.2-156.1,142.4-163.4C220.7,399.1,248.2,404.5,280.7,415.3z"/>
									</g>
									<g>
										<polyline class="st3" points="742.5,415.6 742.5,355.3 742.5,355.1 511.6,280.6 280.7,355.3 280.7,415.3 										"/>
										<polyline class="st3" points="280.7,592.6 280.7,662.1 511.6,743.7 742.5,664.7 742.5,592.2 										"/>
										<line class="st3" x1="511.6" y1="436.9" x2="511.6" y2="743.7"/>
										<line class="st3" x1="511.6" y1="434.3" x2="280.7" y2="355.3"/>
										<line class="st3" x1="511.6" y1="434.3" x2="742.5" y2="355.3"/>
										<path class="st3" d="M456.5,510c-47.4-40.3-119-75.8-175.8-94.7c-32.4-10.8-60-16.2-75.4-14.1
											C153,408.6,52,557.6,62.8,564.6c1,0.6,4.5-0.4,10.2-3.2c18-9,57.6-36.2,106.4-87.3"/>
										<path class="st3" d="M83.8,561.5c7.5,7.6,13.6,9.3,19.4,9.3c1.8,0,3.5-0.2,5.3-0.4c21.3-2.4,48.3-14.6,104.7-70.7"/>
										<path class="st3" d="M126.8,573.5c9.2,9.4,16.3,9.7,23.3,9.1c0.4,0,0.9-0.1,1.3-0.1c21.3-2.4,47-21.4,94.4-60.7"/>
										<path class="st3" d="M176.2,582.8c12.1,7.2,24.3,9.6,31.7,8.8c1.3-0.2,2.7-0.4,4-0.6c19.8-3.1,38.6-13.6,78.8-49.2"/>
										<path class="st3" d="M232.6,591.1c9.8,9.8,17.1,9.7,24.6,8.9c6.8-0.7,14.7-3.4,23.4-7.4c18.7-8.7,40-24,57.3-40.3"/>
										<path class="st3" d="M567.5,510c47.2-40.1,118.3-75.4,175-94.4c32.8-11,60.7-16.5,76.3-14.4
											c52.3,7.3,153.3,156.4,142.4,163.4c-1.3,0.8-7.5-1.4-17.4-7.1c-20.2-11.8-56.2-38.3-99.2-83.4"/>
										<path class="st3" d="M940.3,561.5c-9.8,9.9-17.1,9.8-24.6,9c-4.6-0.5-9.6-1.5-15-3.3c-19.5-6.5-45.7-23.6-89.7-67.3"/>
										<path class="st3" d="M897.2,573.5c-9.8,9.9-17.1,9.8-24.6,9c-6-0.6-12.4-2.7-19.5-6c-18-8.6-40.9-26.4-75-54.6"/>
										<path class="st3" d="M847.8,582.8c-12.2,7.2-24.3,9.6-31.7,8.8c-7.3-0.8-14.3-2.4-22.2-5.7c-14.8-6.4-32.6-19-60.7-44"/>
										<path class="st3" d="M791.4,591.1c-9.8,9.8-17.1,9.7-24.6,8.9c-6.9-0.7-15.3-3.5-24.2-7.8c-18.4-8.8-39.5-23.8-56.5-39.9"
											/>
									</g>
								</g>
							</g>
						</g>
					</g>
				</g>
			</g>
		</g>
	</g>
</g>
</svg>
