<?xml version="1.0" encoding="utf-8"?>
<!-- Generator: Adobe Illustrator 22.1.0, SVG Export Plug-In . SVG Version: 6.00 Build 0)  -->
<svg version="1.1" id="Layer_1" xmlns="http://www.w3.org/2000/svg" xmlns:xlink="http://www.w3.org/1999/xlink" x="0px" y="0px"
	 viewBox="0 0 520 210" style="enable-background:new 0 0 520 210;" xml:space="preserve">
<text transform="matrix(1 0 0 1 268.8972 -671.6736)" style="font-family:'HelveticaNeue'; font-size:11.5313px;"> </text>
<path d="M162.9,49.4C195,38.6,227.1,27.8,259.3,17c2.1-0.7,3.2-3,2.5-5c-0.7-2.1-3-3.2-5-2.5c-32.1,10.8-64.3,21.7-96.4,32.5
	c-2.1,0.7-3.2,3-2.5,5C158.5,49,160.8,50.2,162.9,49.4z"/>
<path d="M355.7,41.9c-32.1-10.8-64.3-21.7-96.4-32.5c-2.1-0.7-4.3,0.4-5,2.5c-0.7,2.1,0.4,4.3,2.5,5c32.1,10.8,64.3,21.7,96.4,32.5
	c2.1,0.7,4.3-0.4,5-2.5C358.9,44.9,357.8,42.6,355.7,41.9z"/>
<path d="M259.3,80.9c32.1-10.5,64.3-21,96.4-31.4c2.1-0.7,3.2-2.9,2.6-5c-0.7-2.1-2.9-3.2-5-2.6c-32.1,10.5-64.3,21-96.4,31.4
	c-2.1,0.7-3.2,2.9-2.6,5C254.9,80.4,257.2,81.6,259.3,80.9z"/>
<path d="M160.3,49.5c32.1,10.5,64.3,21,96.4,31.4c2.1,0.7,4.3-0.5,5-2.6c0.7-2.1-0.5-4.3-2.6-5c-32.1-10.5-64.3-21-96.4-31.4
	c-2.1-0.7-4.3,0.5-5,2.6C157.1,46.5,158.3,48.8,160.3,49.5z"/>
<path d="M259.3,185.5c-32.1-10.5-64.3-21-96.4-31.4c-2.1-0.7-4.3,0.5-5,2.6c-0.7,2.1,0.5,4.3,2.6,5c32.1,10.5,64.3,21,96.4,31.4
	c2.1,0.7,4.3-0.5,5-2.6C262.5,188.4,261.4,186.2,259.3,185.5z"/>
<path d="M259.3,193.1c32.1-10.5,64.3-21,96.4-31.4c2.1-0.7,3.2-2.9,2.6-5c-0.7-2.1-2.9-3.2-5-2.6c-32.1,10.5-64.3,21-96.4,31.4
	c-2.1,0.7-3.2,2.9-2.6,5C254.9,192.6,257.2,193.8,259.3,193.1z"/>
<path d="M254,77.1c0,37.4,0,74.8,0,112.2c0,2.2,1.8,4,4,4c2.2,0,4-1.8,4-4c0-37.4,0-74.8,0-112.2c0-2.2-1.8-4-4-4
	C255.8,73.1,254,74.9,254,77.1z"/>
<path d="M292.5,106.7c-0.3,0.5-0.3,2.6,0.5,3.8c1.2,1.1,3.1,1.1,4.3-0.1c1.1-1.2,1.1-3.1-0.1-4.3c-1.2-1.1-3.1-1.1-4.3,0.1
	c-1.1,1.2-1.1,3.1,0.1,4.3c0.9,0.6,2.1,0.8,2.4,0.8c1.7-0.1,2.9-1.6,2.8-3.2s-1.6-2.9-3.2-2.8c-1.7,0.1-2.9,1.6-2.8,3.2
	c0.1,1.7,1.6,2.9,3.2,2.8c0.4-0.1,0.9-0.2,1.2-0.3c1.6-0.6,2.4-2.3,1.8-3.9c-0.6-1.6-2.3-2.4-3.9-1.8c-1.6,0.6-2.4,2.3-1.8,3.9
	c0.6,1.6,2.3,2.4,3.9,1.8c0.5-0.2,1.2-0.5,1.8-0.8c1.3-0.7,2.3-1.4,3.5-2c1.8-0.9,5-2.7,8.9-5c2.5-1.5,5.3-2.8,9-4.5
	c3.6-1.6,7.6-3.6,11.1-5.4c3.1-1.6,5.6-3.1,8.4-4.7c2.3-1.4,4.8-2.9,7.1-4.3c7.4-4.1,12.8-7.2,19-9.7c3.3-1.3,6.8-2.4,10.4-3.2
	c1.6-0.4,3.1-0.5,5-0.6c2.2-0.1,4.9-0.3,7.6-0.3c3.3,0,5.7,0.4,8.3,1.4c5.7,1.9,12.6,4.9,18.8,8.8c3.5,2.1,6.9,4.1,9.6,6.6
	c6.3,6.5,12.7,14.1,20.3,22.1c7.2,7.2,14.2,15.3,21.5,22.7c6.8,6.4,13.4,13.1,19.3,18c2.7,2.4,4.9,4.8,7.4,6.9c2,1.6,4,2.9,5.1,3.7
	c0.4,0.4,0.6,0.6,0.8,0.8c-0.1-0.1-0.1-0.1,0,0.1c0.9,1,0.9,1,0.5,0.5c1.3,2.4,4.4,3.3,6.8,2c2.4-1.3,3.3-4.4,2-6.8
	c-1.3-2.4-4.4-3.3-6.8-2c-2.4,1.3-3.3,4.4-2,6.8c-0.3-0.4-0.7-2.4-0.4-4.2c-1.1,2.7,0.1,5.8,2.8,6.9c2.7,1.1,5.8-0.1,6.9-2.8
	c1.1-2.7-0.1-5.8-2.8-6.9c-2.7-1.1-5.8,0.1-6.9,2.8c1.1-0.8,2.9-1.6,3.6-1.4c-2,0.6-3,2.7-2.4,4.7s2.7,3,4.7,2.4
	c2-0.6,3-2.7,2.4-4.7c-0.6-2-2.7-3-4.7-2.4c0.4,0.4,0.8,0.9,0.8,1.5c-1.2,0-2.1,0.9-2.2,2.1c0,1.2,0.9,2.1,2.1,2.2
	c0.3,0.5,0.9,1,1.6,1.4c0.9,0.2,2.8-0.7,3.9-1.6c0.3-1.9-0.1-4.1-0.5-4.7c-0.7-1.1-1.4-1.8-1.8-2.1c0.3,0.4,0,0-0.3-0.4
	c-0.7-0.6-1.4-1.2-2.2-1.8c-1.5-1.1-3.3-2.2-4.9-3.4c-2.1-1.7-4.4-3.9-7.4-6.5c-5.6-4.7-12.1-11.2-18.9-17.6
	c-7.1-6.8-14.3-14.9-21.9-22.1c-7.7-7.5-14.3-14.9-21.2-21.5c-3.4-3-7.4-5.4-10.9-7.4c-6.7-4-14.3-7.2-20.3-9.1
	c-3.2-1.1-6.8-1.6-10.6-1.6c-2.9,0-5.7,0.2-8,0.3c-2,0.1-4,0.4-6,0.8c-3.9,0.9-7.8,2.2-11.3,3.6c-6.6,2.7-12.3,6-19.7,10.2
	c-2.4,1.3-5,2.7-7.3,4c-2.7,1.6-5.1,2.9-8.1,4.5c-3.4,1.8-7.3,3.7-10.7,5.3c-3.7,1.7-6.9,3.1-9.8,4.7c-3.8,2.4-6.9,4.3-8.5,5.3
	c-1.6,1-2.6,1.9-3.4,2.5c-0.3,0.2-0.6,0.3-0.7,0.4c-0.1,0,0.1,0,0.4-0.1c0.2,0,1.3,0.2,2.2,0.8c0.8,1.2,0.7,3.3,0.5,3.7
	c0.9-1.4,0.4-3.3-1-4.1S293.3,105.3,292.5,106.7z"/>
<path d="M504,162.2c-0.4,0.2-2,0.1-2.8-0.3c1.4,1,3.3,0.7,4.3-0.6s0.7-3.3-0.6-4.3c-1.4-1-3.3-0.7-4.3,0.6s-0.7,3.3,0.6,4.3
	c-0.5-0.5-1-1.3-1.1-1.4c0.4,1.7,2.2,2.7,3.9,2.3c1.7-0.4,2.7-2.2,2.3-3.9c-0.4-1.7-2.2-2.7-3.9-2.3c-1.7,0.4-2.7,2.2-2.3,3.9
	c-0.1-0.1-0.1,0-0.2,0.4c0.1,1.8,1.6,3.3,3.5,3.2c1.8-0.1,3.3-1.6,3.2-3.5c-0.1-1.8-1.6-3.3-3.5-3.2c-1.8,0.1-3.3,1.6-3.2,3.5
	c0.1,0.9,0.1,0.9,0,0.7c0.3-0.8,0.9-1.6,0.5-1.5c-0.4,0.1-1.1,0.2-2,0.4c-2.3,0.7-4.9,0.5-8,0.3c-2.1-0.2-4-1.2-7.2-2.4
	c-3.1-1.1-6.8-2.2-11-4.6c-4-2.1-7.3-3.9-10.7-6.7c-1.4-1.2-2.8-2.3-4.4-3.6c-2.3-2-5.5-4.9-8.3-7.3c-1.1-1-2.1-1.9-2.9-2.6
	c-1-0.9-1.8-1.5-2.5-2c-0.8-0.6-1.6-1.1-2.1-1.6c-0.4-0.2-0.4-0.2-0.5-0.1c-0.4-0.2-0.4,0.2-0.5,0.4c-0.1,0.3-0.1,1.7-0.5,2.7
	c0.6-1.8-0.3-3.7-2.1-4.4c-1.8-0.6-3.7,0.3-4.4,2.1c-0.6,1.8,0.3,3.7,2.1,4.4c1.8,0.6,3.7-0.3,4.4-2.1c-0.3,0.5-1.1,1.3-1.6,1.4
	c1.5-0.9,2-2.8,1.1-4.2c-0.9-1.5-2.8-2-4.2-1.1c-1.5,0.9-2,2.8-1.1,4.2c0.9,1.5,2.8,2,4.2,1.1c-0.4,0.1-0.9,0.1-1.1,0
	c1.5-0.2,2.6-1.5,2.4-3.1c-0.2-1.5-1.5-2.6-3.1-2.4c-1.5,0.2-2.6,1.5-2.4,3.1c0.2,1.5,1.5,2.6,3.1,2.4c-0.2-0.2-0.3-0.4-0.1-0.6
	c1.1,0.2,2.3-0.5,2.5-1.6c0.2-1.1-0.5-2.3-1.6-2.5c-0.3-0.3-0.9-0.6-1.4-0.7c-0.3-0.1-1,0-1.4,0.1c-0.5,0.2-1.4,1.1-1.7,1.6
	c-0.4,1.2-0.4,2.7-0.4,3.3c0,0.5,0.2,1.1,0.2,1.5c0.2,0.4,0.7,1.1,1.2,1.7c0.9,0.9,2.1,1.8,3,2.6c0.7,0.5,1.2,0.8,2.1,1.5
	c0.8,0.6,1.7,1.4,2.8,2.3c2.7,2.4,5.8,5.2,8.2,7.4c1.7,1.5,3.1,2.7,4.6,3.9c4,3.3,8.1,5.8,12.3,8.1c5.4,2.5,10.3,3.6,13.3,4.3
	c2.9,0.6,6.1,1.5,9.6,1.4c2.9-0.1,6.6-0.1,10-1.2c0.5-0.2,1.7-0.4,2.8-0.9c1.1-0.6,2.9-2.2,3.5-4.1c0.1-1.3-0.1-2.1-0.1-2.4
	c0,0.1-0.1-0.6-0.3-1.3c-0.1-0.4-0.7-1.4-1.4-2c-0.9-0.5-2.7-0.5-3.3-0.3c-1.5,0.7-2.2,2.4-1.5,4C500.7,162.2,502.5,162.9,504,162.2
	z"/>
<path d="M466.3,161.6c0.2,0,0.2,0,0.2,0c1.7-0.5,2.6-2.2,2.1-3.9c-0.5-1.7-2.2-2.6-3.9-2.1c-1.7,0.5-2.6,2.2-2.1,3.9
	c0.5,1.7,2.2,2.6,3.9,2.1c0,0-0.3,0.1-0.5,0.1c1.7-0.1,3-1.7,2.9-3.4c-0.1-1.7-1.7-3-3.4-2.9c-1.7,0.1-3,1.7-2.9,3.4
	c0.1,1.7,1.7,3,3.4,2.9c-0.4,0-2.5-0.9-3.4-2.7c0.2,1.8,1.9,3,3.6,2.8c1.8-0.2,3-1.9,2.8-3.6c-0.2-1.8-1.9-3-3.6-2.8
	c-1.8,0.2-3,1.9-2.8,3.6c0.1-1.5,0.7-2.5,0.8-2.7c0.1-0.1,0.2-0.2,0.2-0.3c0,0-0.1-0.1-0.2,0c-0.5,0.2-1.3,0.6-2.2,0.8
	c-3.1,1-7.2,0.8-10.7,0.5c-3.5,0-5.5,0-7.7-0.6c-2.6-0.4-5-1.6-8.4-3.9c-1.7-1.1-3.7-2.5-5.6-3.9c-1.2-0.9-2.3-1.7-3.4-2.6
	c-1.2-1-2.7-2.2-4.2-3.7c-2.8-2.7-5.4-4.7-8-7c-3.5-3.4-6.6-8.3-9.3-12.1c-1.7-2.3-3.4-4.4-4.7-6c-0.7-0.8-1.2-1.3-1.5-1.7
	c-0.2-0.3-0.2-0.3-0.2-0.4c-0.3-0.4,0-0.1,0.3,0.8c-0.7-3.2-3.9-5.2-7-4.4c-3.2,0.7-5.2,3.9-4.4,7c0.7,3.2,3.9,5.2,7,4.4
	c3.2-0.7,5.2-3.9,4.4-7c-0.2,0.5-0.6,2.1-1.2,3c1.1-2.5-0.1-5.4-2.6-6.5c-2.5-1.1-5.4,0.1-6.5,2.6c-1.1,2.5,0.1,5.4,2.6,6.5
	c2.5,1.1,5.4-0.1,6.5-2.6c-0.9,0.8-2.9,2-3.7,1.9c2.2-0.4,3.6-2.5,3.2-4.6c-0.4-2.2-2.5-3.6-4.6-3.2c-2.2,0.4-3.6,2.5-3.2,4.6
	c0.4,2.2,2.5,3.6,4.6,3.2c-0.8-0.6-1.2-1.3-0.7-1.8c1.1,0.5,2.3,0,2.8-1c0.5-1.1,0-2.3-1-2.8c-0.3-0.8-1.3-1.7-2.4-2.2
	c-1,0-3.1,1.2-4,2.1c-0.7,1.1-1,2.8-1.2,3.4c0.5,1.4,1.2,2.6,1.6,3.1c0.3,0.4,0.9,1.1,1.4,1.6c0.6,0.6,1.2,1.2,1.9,1.8
	c1.4,1.2,3,2.8,4.5,4.5c2.6,3.3,6.3,8.8,10.8,12.9c2.7,2.6,5,4.7,7.4,7.2c1.5,1.6,3.1,3.3,4.5,4.6c1.3,1.1,2.6,2.1,3.9,3.1
	c2,1.5,4.3,3.1,6.2,4.4c4.3,2.6,8.9,4.3,12.5,4.7c2.7,0.6,5.9,0.6,9.5,0.5c3.7-0.4,9.2-1.1,13.7-3.2c1.4-0.8,2.6-1.7,3.1-2.2
	c0-0.1,0.2-0.2,0.3-0.4c0.1-0.1,0.3-0.3,0.4-0.4c0.2-0.2,0.7-1.3,0.9-2.7c-0.9-1.8-3-2.8-3.5-2.8c-0.3,0.1-0.6,0.1-0.7,0.2
	c-0.2,0.1-0.5,0.2-0.7,0.4c-1.5,0.6-2.3,2.4-1.7,3.9C463,161.5,464.8,162.2,466.3,161.6z"/>
<path d="M413.4,148.3c-0.3,0.3-0.8,0.3-2.4,0.4c-1.9,0.5-3.1,2.5-2.6,4.4c0.5,1.9,2.5,3.1,4.4,2.6c1.9-0.5,3.1-2.5,2.6-4.4
	c-0.5-1.9-2.5-3.1-4.4-2.6c-1.6,0.2-3.4,0.1-5.4,0.1c-2.3,0.2-4.1,2.2-3.9,4.6c0.2,2.3,2.2,4.1,4.6,3.9c2.3-0.2,4.1-2.2,3.9-4.6
	c-0.2-2.3-2.2-4.1-4.6-3.9c-1.9,0-3.4-0.2-5-0.9c-2.5-0.7-5.1,0.7-5.9,3.2c-0.7,2.5,0.7,5.1,3.2,5.9c2.5,0.7,5.1-0.7,5.9-3.2
	c0.7-2.5-0.7-5.1-3.2-5.9c-2.1-0.6-3-0.7-4.4-1.5c-0.8-0.4-1.7-1.2-3.1-2.5c-0.9-0.9-2-1.9-3.1-3c-0.9-0.9-1.8-1.7-2.5-2.5
	c-1.3-1.3-2.2-2.1-3-2.8c-1.9-2.2-4.4-5.2-6.8-7.8c-2.3-2.3-3.2-3.8-4.6-6.1c-0.8-1.2-1.6-2.6-2.4-3.7c-0.4-0.6-0.9-1.1-1.2-1.5
	c-0.4-0.4-0.7-0.7-1-1c-0.3-0.3-0.7-0.8-1.2-1.4c-0.5-0.6-1-1.2-1.4-1.6c-0.2-0.2-0.3-0.3-0.4-0.4c-0.2-0.2-0.2-0.2-0.2-0.3
	c0,0,0.4,1.1,0.6,2.8c-0.2,0.6-1,2.2-1.7,2.8c1.8-2,1.8-5-0.2-6.9c-2-1.8-5-1.8-6.9,0.2c-1.8,2-1.8,5,0.2,6.9c2,1.8,5,1.8,6.9-0.2
	c-0.8,0.5-2.2,1.1-2.8,1.1c2.4-0.4,4.1-2.6,3.8-5.1c-0.4-2.4-2.6-4.1-5.1-3.8c-2.4,0.4-4.1,2.6-3.8,5.1c0.4,2.4,2.6,4.1,5.1,3.8
	c-0.8-0.2-1.6-0.6-1.7-0.9c1.9,0.7,4-0.3,4.7-2.2c0.7-1.9-0.3-4-2.2-4.7c-1.9-0.7-4,0.3-4.7,2.2c-0.7,1.9,0.3,4,2.2,4.7
	c0.1-0.5,0.5-0.9,1.2-1.1c1,0.6,2.3,0.3,2.9-0.6c0.6-1,0.3-2.3-0.6-2.9c-0.3-0.8-0.7-1.6-1-2.3c-0.3-0.4-1.3-0.8-2.2-1
	c-0.6,0-2.1,0.6-2.9,1.1c-0.7,0.7-1.5,2.3-1.7,3c0.2,1.9,0.7,3.3,1,3.8c0.3,0.4,0.6,0.8,0.8,1.1c0.2,0.2,0.5,0.6,0.7,0.8
	c0.5,0.5,0.9,1,1.4,1.5c0.4,0.5,0.9,1,1.3,1.5c0.5,0.5,0.7,0.8,0.9,1c0.2,0.2,0.4,0.5,0.7,0.9c0.6,0.7,1.3,1.7,2,2.8
	c1.4,2.3,3,4.9,5.9,7.9c2.3,2.3,4.9,5.2,7.1,7.5c1.2,1.2,2.3,2.1,3.5,3.2c0.7,0.7,1.6,1.5,2.5,2.4c1.2,1.1,2.4,2.2,3.5,3.1
	c1.8,1.5,3.4,2.8,4.9,3.6c2.5,1.4,4.7,1.9,6.4,2.4c2.7,0.6,5.8,0.6,8.3,0.3c2-0.4,4.4-0.8,6.4-1.5c2.1-0.7,4.5-2.2,5.7-4.2
	c0.9-1.4,0.5-3.3-0.9-4.1C416.1,146.5,414.3,146.9,413.4,148.3z"/>
<path d="M358,137.6c-0.8-0.6-2.2-0.9-2.9-1c-1.8,0.2-3.1,1.8-2.9,3.7c0.2,1.8,1.8,3.1,3.7,2.9c1.8-0.2,3.1-1.8,2.9-3.7
	c-0.2-1.8-1.8-3.1-3.7-2.9c-0.7,0-1.5,0.1-2,0.2c-1.9,0.7-2.9,2.8-2.2,4.7c0.7,1.9,2.8,2.9,4.7,2.2c1.9-0.7,2.9-2.8,2.2-4.7
	c-0.7-1.9-2.8-2.9-4.7-2.2c-1.1,0.2-2,0.4-2.8,0.4c-2.3,0.7-3.5,3-2.9,5.3c0.7,2.3,3,3.5,5.3,2.9c2.3-0.7,3.5-3,2.9-5.3
	c-0.7-2.3-3-3.5-5.3-2.9c-3.2,0.6-7,1.3-9.8,1.2c-2.3-0.2-4.9-1.5-7.5-3.8c-2-1.8-3.8-3.8-5.8-5.5c-1-0.9-2.1-1.9-3.3-3.1
	c-0.8-0.8-1.5-1.5-2-2.1c-0.3-0.4-0.6-1-2-2c-1.1-0.3-6.5,2.4-6.9,4.6c0.1,2.5,2.2,4.5,4.8,4.5c2.5-0.1,4.5-2.2,4.5-4.8
	c-0.1-2.5-2.2-4.5-4.8-4.5c-2.5,0.1-4.5,2.2-4.5,4.8c0.2,0.9,0.6,1.6,0.8,1.8c1,2.1,3.6,3,5.7,2c2.1-1,3-3.6,2-5.7
	c-1-2.1-3.6-3-5.7-2c-2.1,1-3,3.6-2,5.7c0.3,0.1,0.7,0.2,1,0.2c1,1.7,3.2,2.2,4.9,1.1c1.7-1,2.2-3.2,1.1-4.9s-3.2-2.2-4.9-1.1
	c-1.7,1-2.2,3.2-1.1,4.9c0.6,0,1.2,0.1,1.9,0.3c0.6,1,2,1.2,2.9,0.6c1-0.6,1.2-2,0.6-2.9c0.1-0.8,0.3-1.3,0.6-1.8
	c0.2-0.2,0.4-0.2,0.7-0.2c0.2,0.1,0.5,0.8,0.8,1.7c-0.3,2.2-5.7,4.9-6.8,4.6c-1.2-1-0.8-0.7-0.1-0.2c0.8,0.7,1.7,1.4,2.5,2
	c1.3,1.2,2.5,2.2,3.6,3.1c1.6,1.3,3.4,3.3,5.8,5.5c3.6,3,8.4,5.3,12.6,5.8c4.2,0.1,8.8-0.8,12.4-1.5c1.7-0.7,2.7-1.4,3.3-1.8
	c0.3-0.2,0.2-0.3,0.2-0.4c-0.1-0.1-0.9-0.4-1.2-0.7c1.4,0.9,3.2,0.6,4.2-0.8C359.7,140.4,359.4,138.5,358,137.6z"/>
<path d="M384.9,142.5c-0.1-0.5-0.9-1.3-1.5-1.8c-1.8-0.7-3.8,0.3-4.5,2.1c-0.7,1.8,0.3,3.8,2.1,4.5s3.8-0.3,4.5-2.1
	c0.7-1.8-0.3-3.8-2.1-4.5c-1-0.4-2.8-0.2-3.5,0c-1.8,1.2-2.4,3.6-1.2,5.5c1.2,1.8,3.6,2.4,5.5,1.2c1.8-1.2,2.4-3.6,1.2-5.5
	c-1.2-1.8-3.6-2.4-5.5-1.2c-1.1,0.5-1.8,0.8-2.2,0.8c-1.8,2-1.6,5.1,0.5,6.9c2,1.8,5.1,1.6,6.9-0.5c1.8-2,1.6-5.1-0.5-6.9
	c-2-1.8-5.1-1.6-6.9,0.5c0-0.2-0.3-0.1-0.7,0c-1.6,1-2.8,1.3-4.7,1.6c-1.7,0.3-2,0.4-2.3,0.1c-0.1,0.1-0.7-0.6-2.2-1.9
	c-2.1-1.9-4.1-3.5-6.1-5.1c-1.2-0.8-2.4-1.9-3.7-3.3c-2.3-2.4-4.2-4.1-6.1-6.2c-1.5-1.5-2.3-2.7-3.5-4.6c-0.5-0.7-1-1.4-1.4-1.9
	c-0.5-0.5-1-1.1-1.5-1.5c-0.7-0.7-1.2-1-1.4-1.2c-0.2-0.2,0.1,0.1,0.4,0.5c0.6,1.8,0.7,3.5,0.3,4.6c0.7-3.1-1.1-6.1-4.2-6.9
	c-3.1-0.7-6.1,1.1-6.9,4.2c-0.7,3.1,1.1,6.1,4.2,6.9c3.1,0.7,6.1-1.1,6.9-4.2c-0.6,1.1-2.4,3-3.5,3.3c2.6-1.1,3.9-4.1,2.8-6.8
	c-1.1-2.6-4.1-3.9-6.8-2.8c-2.6,1.1-3.9,4.1-2.8,6.8c1.1,2.6,4.1,3.9,6.8,2.8c-1.5,0-2.9-0.4-3-0.8c2.2,0.8,4.6-0.3,5.3-2.5
	c0.8-2.2-0.3-4.6-2.5-5.3c-2.2-0.8-4.6,0.3-5.3,2.5c-0.8,2.2,0.3,4.6,2.5,5.3c0.3-0.6,1-1,2.5-0.7c0.9,0.7,2.2,0.6,3-0.3
	c0.7-0.9,0.6-2.2-0.3-3c-0.8-1.5-1.7-2.8-2.3-3.8c-0.6-0.5-2.3-1-3.9-0.9c-1.1,0.4-3,2.3-3.6,3.5c-0.3,1.2-0.3,3-0.3,3.7
	c1.2,2,1.8,2.6,2.1,2.9c0.4,0.4,0.6,0.6,0.7,0.8c-0.1,0-0.1,0.1,0.2,0.5c0.3,0.4,0.6,0.9,0.9,1.4c1.3,2.1,3.1,4.3,5,6.3
	c2.2,2.4,4.2,4.1,6.2,6.2c1.5,1.6,3.4,3.5,5.1,4.8c2.2,1.6,4.1,2.8,6,4.3c2.1,1.6,5.2,3.5,8.4,4.2c2.9,0.1,5.2-0.6,6.6-1
	c2.4-0.7,5.5-1.9,8.2-3.8c0.7-0.7,1.3-1.3,1.7-1.8c0.5-1,0.2-1.2-0.6-0.9c-0.5,0.1-2.2,0.2-3-0.1c-0.5-0.4-1-1.1-1-1.3
	c1,1.3,2.9,1.6,4.2,0.7C385.6,145.7,385.9,143.8,384.9,142.5z"/>
<path d="M350.5,45.7c0,10.5,0,21,0,31.4c0,2.2,1.8,4,4,4s4-1.8,4-4c0-10.5,0-21,0-31.4c0-2.2-1.8-4-4-4S350.5,43.5,350.5,45.7z"/>
<path d="M358.5,157.8c0-5.5,0-11,0-16.5c0-2.2-1.8-4-4-4s-4,1.8-4,4c0,5.5,0,11,0,16.5c0,2.2,1.8,4,4,4S358.5,160,358.5,157.8z"/>
<path d="M125.5,66.4c0,0.1,0,0.7,0.4,2c0.7,1.4,2.5,2,3.9,1.3c1.4-0.7,2-2.5,1.3-3.9c-0.7-1.4-2.5-2-3.9-1.3c-1.4,0.7-2,2.5-1.3,3.9
	c3.8,1.3,5,0.1,5,0c0.7-1.4,0.2-3-1.1-3.8c-1.4-0.7-3-0.2-3.8,1.1s-0.2,3,1.1,3.8c1.4,0.7,3,0.2,3.8-1.1c0-0.2,0-0.3,0-0.4
	c0.6-1.3,0-2.8-1.3-3.4c-1.3-0.6-2.8,0-3.4,1.3c-0.6,1.3,0,2.8,1.3,3.4c1.3,0.6,2.8,0,3.4-1.3c0-0.1-0.1-0.1-0.2-0.2
	c0.6-1.2,0.1-2.6-1-3.1s-2.6-0.1-3.1,1s-0.1,2.6,1,3.1c1.2,0.6,2.6,0.1,3.1-1c-0.1,0-0.4,0.3-1.2,0.8c1.1-0.4,1.6-1.7,1.2-2.8
	c-0.4-1.1-1.7-1.6-2.8-1.2c-0.9,0.5-1.2,0.9-1.4,1c-0.1,0.1-0.2,0.2-0.3,0.2c-0.1,0-0.2,0-0.2-0.1c0-0.1,1.2-1.2,5,0
	c0.4,1.3,0.3,1.8,0.4,1.9c0.3-1.6-0.7-3.2-2.3-3.6C127.4,63.7,125.8,64.7,125.5,66.4z"/>
<path d="M221.7,111.1c-0.1-1.1-0.9-2.5-1.4-2.9c-1.3-1-3.2-0.8-4.2,0.5c-1,1.3-0.8,3.2,0.5,4.2c1.3,1,3.2,0.8,4.2-0.5
	c1-1.3,0.8-3.2-0.5-4.2c-0.4-0.3-0.9-0.6-1.3-0.7c-1.5-0.6-3.2,0.1-3.8,1.6c-0.6,1.5,0.1,3.2,1.6,3.8c1.5,0.6,3.2-0.1,3.8-1.6
	s-0.1-3.2-1.6-3.8c-0.7-0.3-1.5-0.5-2.3-0.7c-1.5-0.5-3.1,0.4-3.6,1.9c-0.5,1.5,0.4,3.1,1.9,3.6c1.5,0.5,3.1-0.4,3.6-1.9
	c0.5-1.5-0.4-3.1-1.9-3.6c-1.8-0.6-3.5-3-6.6-5.2c-1.9-1.2-4.1-2.9-6.7-4.5c-5.2-3.5-10.2-6.9-14.1-9.6c-3.9-2.2-6.7-4-9.9-6.3
	c-2-1.2-4-2.2-6.1-3.1c-1.3-0.6-2.1-0.9-3.5-1.6c-1.5-0.7-3.6-1.6-5.4-2.4c-4.5-2.2-8.5-3.8-12.9-5.5c-2-0.9-4.5-1.9-6.7-2.6
	c-1.2-0.4-2.2-0.8-3.8-1.4c-0.9-0.3-1.9-0.6-2.6-0.8c-0.9-0.2-1.6-0.4-2.1-0.5c-3.1-0.6-7-0.6-9.9-0.6c-2.6,0-5.2,0.3-7.7,0.2
	c-2.9,0.2-5.4,0.5-8.1,0.9c-1.7,0.4-3.2,1-4.5,1.8c-0.6,0.3-1.6,0.8-2.5,1.2c-1.3,0.7-2.5,1.3-3.8,2c-1.9,1.1-2.8,2-3.5,2.3
	c-0.7,0.3-1.6,0.6-2.6,1.1c-0.7,0.3-1.6,0.7-2.5,1.2c-0.5,0.5-0.8,0.7-0.9,0.9c-0.2,0.1-1.5,0.7-2.8,1.5c-0.8,0.6-1.3,1.1-1.6,1.4
	c-0.7,0.5-1.7,1.1-2.7,1.8c-0.4,0.2-0.7,0.5-1.1,0.7c-0.4,0.3-0.8,0.6-1.3,0.9c-1.3,1-2.7,2.1-4,3c-1.6,1-3.2,2.2-4.5,3.2
	c-0.6,0.4-1.6,0.9-2.6,1.7c-0.7,0.8-0.7,1-0.6,1c0.5-0.7,0-0.5-0.6-0.3c-1.5,1.1-2.2,2.2-2.4,2.4c0.2-0.1,0-0.1-0.2,0.1
	c-0.8,0.8-1.6,1.6-2.1,2.3c-0.4,0.3-0.4,0.3-0.7,0.5c-0.2,0.1-0.9,0.5-1.5,1c-1.2,1.5-1.6,2.5-1.6,2.7c0-0.1-0.2,0-0.5,0.2
	c-0.3,0.3-0.4,0.3-0.5,0.4c-0.2,0.2-0.5,0.5-0.8,0.8c-0.3,0.3-0.6,0.5-0.8,0.7c-0.4,0.4-0.9,0.8-1.2,1.1c-0.1,0.1-0.2,0.2-0.3,0.3
	c-0.3,0.3-0.7,0.6-1,0.8c-1.7,1.5-2.9,2.9-4.3,4.7c-0.4,0.5-0.4,0.6-0.6,0.8c-1.1,1.1-2.6,2.8-3.7,4.2c-1.4,1.5-3.2,3.4-4.9,5.2
	c-0.5,0.5-1.4,1.2-2.2,2c-1.3,1.5-1.6,2.1-2.3,2.8c-2.8,2.6-4.7,5.7-6.4,7.8c-1.3,1.8-2,2.9-3.2,4.4c-0.6,0.8-1.4,1.6-2,2.5
	c-0.8,1.1-1.9,2.4-2.8,3.7c-0.5,0.8-0.7,1.2-0.9,1.6c-0.2,0.2-0.4,0.5-0.8,0.9c-0.4,0.5-0.7,0.8-1.1,1.3c-0.2,0.2-0.5,0.6-0.9,0.9
	c-0.7,0.9-1.1,1.5-1.4,2.1c-0.3,0.4-0.9,1.1-1.4,1.6c-0.2,0.1-0.6,0.6-1,1c-1.2,1.6-2.6,5-2.5,8c0,0.8-0.1,2.4,0.1,3.9
	c0.2,0.7,0.6,1.8,1.1,2.5c0.6,0.7,0.8,0.9,0.8,0.9c-0.4-0.6-0.2-0.1,0.1,0.6c1,1.4,2.1,2.1,2.7,2.5c3,1.8,6.9,1.9,10.4,1.5
	c2.7-0.5,5-1.5,7.3-2.5c1-0.4,2.3-1,3.8-2c1.1-0.7,2.2-1.6,3.2-2.3c1-0.7,1.8-1.3,2.6-1.9c0.4-0.3,0.8-0.7,1.3-1.1
	c0.7-0.6,1.5-1.3,2.4-2c1.9-1.5,3.2-2.6,4.5-3.9c1.2-1.1,3.2-3,5.2-4.9c1.6-1.5,2.8-2.7,4.2-4c1.1-1,2.3-2.2,3.4-3.3
	c1.8-1.6,3.2-3.1,4.5-4.7c0.4-0.6,0.8-1,1.2-1.6c0.8-1,1.9-2.2,3-3.4c1.2-1.2,2.4-2.2,3.5-3.2c1.2-1,2.2-2,3.2-3.1
	c0.5-0.6,1-1.2,1.6-1.8c1.6-1.9,1.3-4.7-0.5-6.3c-1.9-1.6-4.7-1.3-6.3,0.5c-1.6,1.9-1.3,4.7,0.5,6.3c1.9,1.6,4.7,1.3,6.3-0.5
	c0.7-0.8,1.7-1.8,2.5-2.7c1.7-1.8,1.6-4.6-0.2-6.3c-1.8-1.7-4.6-1.6-6.3,0.2c-1.7,1.8-1.6,4.6,0.2,6.3c1.8,1.7,4.6,1.6,6.3-0.2
	c1.3-1.4,2.3-2.4,2.9-3.1c1.6-1.9,1.3-4.8-0.7-6.3c-1.9-1.6-4.8-1.3-6.3,0.7c-1.6,1.9-1.3,4.8,0.7,6.3c1.9,1.6,4.8,1.3,6.3-0.7
	c0.8-3.4-1.5-1.6,0.9-4.2c1-0.7,1.2-2,0.5-2.9c-0.7-1-2-1.2-2.9-0.5c-3.8,1.7-5,3.5-5.7,2.4c-0.1,0.1-0.9,1-2.2,2.4
	c-0.9,0.9-1.9,2-2.8,3c-0.7,0.8-1.1,1.5-1.5,2c-0.7,0.9-1.2,1.4-2.1,2.3c-1,0.8-2.5,1.9-4.1,3.4c-1.4,1.4-2.7,3-3.7,4.3
	c-0.5,0.7-0.9,1.3-1.3,1.8c-0.9,1.3-1.7,2.4-3.2,4c-1.1,1.2-2.4,2.4-3.3,3.5c-1.3,1.4-2.4,2.6-3.9,4.1c-1.9,1.8-4,3.8-5.2,5.1
	c-1.1,1.2-2.1,2.1-3.9,3.6c-0.8,0.7-1.7,1.4-2.4,2c-0.5,0.4-0.9,0.7-1.3,1c-0.6,0.5-1.3,1.2-2.3,2c-1,0.8-1.9,1.6-2.6,2.2
	c-0.9,0.6-1.6,0.8-2.7,1.3c-2.3,1-3.8,1.7-5.5,1.9c-3.1,0.4-4.5,0.6-5.9-0.5c-0.6-0.4-0.5-0.2-0.4-0.2c0.2,0.4,0.1,0-0.2-0.7
	c-0.8-1.2-1.1-1.4-1.1-1.4c0.3,0.3,0.4,0.6,0.4,0.5c-0.1-0.5-0.1-1.4,0-2.6c-0.1-1.5,0.6-2.7,1.4-3.5c0.2-0.3,0-0.1,0.2-0.2
	c0.8-0.8,1.7-1.9,2.4-2.7c0.5-0.7,0.7-0.9,1.1-1.4c0.2-0.2,0.5-0.5,0.7-0.8c0.6-0.7,1-1.2,1.4-1.7c0.3-0.4,0.6-0.8,0.9-1.3
	c0.6-0.8,0.9-1.3,1.2-1.8c0.6-0.9,1.6-2.1,2.4-3.2c0.4-0.5,1.2-1.3,2-2.2c1.6-1.8,2.5-3.2,3.6-4.7c1.9-2.4,3.4-4.9,5.6-6.7
	c1.4-1.4,2.1-2.4,2.9-3.3c0.4-0.5,1.1-1.2,1.8-1.9c1.7-1.9,3.6-3.8,5.2-5.6c1.1-1.3,2.5-2.8,3.6-4c0.5-0.5,0.7-0.9,0.9-1.1
	c1.3-1.5,2-2.2,3.4-3.2c0.3-0.2,0.6-0.5,1-0.7c0.2-0.1,0.4-0.3,0.5-0.4c0.4-0.3,0.9-0.7,1.3-1c0.3-0.2,0.6-0.5,0.9-0.8
	c0.3-0.3,0.7-0.6,1-0.9c0.3-0.3,0.4-0.4,0.5-0.5c0.1-0.1,0.4-0.5,0.7-0.9c1.1-1.1,1.3-1.4,1.7-1.6c0,0,0.2-0.2,0.7-0.6
	c0.8-0.7,1.4-1.4,1.9-1.9c0.4-0.4,0.9-0.8,1.3-1.1c0,0,0.3-0.2,0.6-0.5c1.1-1,1.1-1.1,1.4-1.2c0.2-0.3,0.9-0.8,1.5-1.4
	c1.1-1,1.2-1.1,1.2-0.9c-0.4,0.3,0.1,0.1,1.1-0.6c1.4-0.9,2.9-1.9,4.5-2.8c1.7-1,3.4-2.3,4.6-3.1c0.3-0.2,0.6-0.4,1.1-0.7
	c0.4-0.3,0.8-0.6,1.2-0.8c1-0.8,2.1-1.6,3-2.4c0.6-0.5,0.9-0.7,1.2-0.9c0.4-0.3,1.8-1,3-1.9c0.6-0.4,0.7-0.5,0.8-0.5
	c-0.2,0.1,0.2-0.1,1.1-0.5c0.7-0.4,1.5-0.7,2.4-1.1c2.2-1.1,3.3-2.2,4-2.6c1.1-0.5,2.3-1,3.7-1.6c0.9-0.4,1.9-0.9,2.8-1.4
	c0.9-0.5,1-0.5,2-0.6c2.3-0.5,4.4-0.8,6.7-1c2.6-0.1,5.3-0.4,7.5-0.5c3-0.1,6.1-0.3,8.3,0.1c0.6,0.1,0.8,0.1,1.5,0.3
	c0.6,0.2,1.4,0.4,2.1,0.6c1.4,0.4,2.7,0.9,4.3,1.3c1.8,0.5,3.8,1.3,5.9,2.2c4.5,1.7,8.2,3.2,12.6,5.3c2,0.9,4.1,1.8,5.5,2.5
	c1.5,0.7,2.5,1.1,3.7,1.6c1.9,0.8,3.4,1.6,4.8,2.5c3.3,2.2,6.5,4.3,10.4,6.3c3.8,2.4,8.9,5.7,14.3,9c2.5,1.5,4.8,3,6.9,4.3
	c2.5,1.2,4.9,3.7,8.5,4.8c0.8,0.3,1.4,0.5,1.8,0.6c0.1,0.1,0,0-0.1-0.1c-0.2-0.2-0.8-1.3-1-2.2c-0.1,1.7,1.2,3.1,2.8,3.2
	C220.2,114.1,221.6,112.8,221.7,111.1z"/>
<path d="M35.8,162.7c-0.1,0.5-0.1,1.4,0,1.9c0.3,1.6,1.9,2.6,3.5,2.2c1.6-0.3,2.6-1.9,2.2-3.5c-0.3-1.6-1.9-2.6-3.5-2.2
	c-1.6,0.3-2.6,1.9-2.2,3.5c0.2,0.7,1.1,1.7,1.6,2c1.3,0.8,3.1,0.4,3.9-0.9c0.8-1.3,0.4-3.1-0.9-3.9c-1.3-0.8-3.1-0.4-3.9,0.9
	c-0.8,1.3-0.4,3.1,0.9,3.9c0.9,0.4,1.7,0.4,2,0.4c1.5,0.1,2.8-0.9,2.9-2.4c0.1-1.5-0.9-2.8-2.4-2.9c-1.5-0.1-2.8,0.9-2.9,2.4
	c-0.1,1.5,0.9,2.8,2.4,2.9c-0.3,0,0.4,0.7,1.9,1.3c1.2,0.3,2.3,0.5,3.2,0.6c0.7,0.1,1.2,0.2,1.8,0.4c0,0,0.6,0.3,1.4,0.4
	c1.6,0.2,3.5,0.2,5,0.1c3.1-0.3,4.4,0,7.2-0.4c2.1-0.4,3.8-1.3,5.7-2.1c1.4-0.7,3.1-1.7,4.7-2.7c3.3-2,6-4.5,8.8-7.1
	c2-1.8,4.1-3.1,6-4.8c0.9-0.8,1.7-1.6,2.4-2.3c1.2-1.4,3.2-3.4,4.7-4.9c1.7-1.6,2.8-2.7,3.9-4c1.3-1.6,3-3.7,4.5-5.4
	c1.4-1.6,2.3-2.6,3.5-3.9c1-1.1,2.4-2.5,3.5-3.9c1.4-1.8,1.1-4.3-0.6-5.8c-1.8-1.4-4.3-1.1-5.8,0.6c-1.4,1.8-1.1,4.3,0.6,5.8
	c1.8,1.4,4.3,1.1,5.8-0.6c1.2-1.7,1.6-2.7,1.9-3.1c1.4-1.8,1-4.3-0.8-5.6c-1.8-1.4-4.3-1-5.6,0.8c-1.4,1.8-1,4.3,0.8,5.6
	c1.8,1.4,4.3,1,5.6-0.8c0.8-1,3.5-3,4.8-5.9c0.6-2.1-0.6-4.3-2.7-4.9c-2.1-0.6-4.3,0.6-4.9,2.7c-0.6,2.1,0.6,4.3,2.7,4.9
	c2.1,0.6,4.3-0.6,4.9-2.7c-0.4-1.1-1.3-2.7-2.3-3.2c-0.7-0.9-2.1-1-3-0.3s-1,2.1-0.3,3c-0.7,0-1.5-1.2-2.1-1.7
	c0.6-0.5-1.6,1-3.4,3.1c-1.1,1.4-1.4,2.3-2.1,3.1c-0.7,0.8-1.9,2-3,3.1c-1.3,1.4-2.3,2.6-3.7,4.2c-1.6,1.8-3.4,4-4.6,5.5
	c-0.9,1.1-1.6,1.8-3.3,3.4c-1.7,1.7-3.8,4-5.3,5.7c-0.7,1-1,1.6-1.4,2.1c-1.2,1.2-3.3,2.5-5.8,4.8c-2.7,2.7-4.9,4.9-7.5,6.5
	c-1.5,0.9-2.9,1.8-4.2,2.4c-1.9,1.1-2.8,1.7-3.7,2c-1.5,0.3-2.8-0.1-6.6,0.2c-1.3,0.2-2.6,0.3-3.4,0.2c0.1,0,0,0-0.3-0.2
	c-1.2-0.3-2.3-0.5-3.4-0.6c-1,0-1.6,0.1-2,0c-0.5-0.1-1.2-0.5-2.4-0.9c-0.9-0.2-0.7-0.2-0.1,0c0.3,0.2,1,1.1,1.2,1.5
	c0.1,0.4,0.1,0.9,0.1,1c0.5-1.6-0.4-3.3-2-3.7C38,160.2,36.3,161.1,35.8,162.7z"/>
<path d="M81.2,154.2c-0.2-0.1-0.7-0.4-1.1-0.5c-1.5-0.5-3.2,0.4-3.7,1.9c-0.5,1.5,0.4,3.2,1.9,3.7c1.5,0.5,3.2-0.4,3.7-1.9
	c0.5-1.5-0.4-3.2-1.9-3.7c-0.4-0.1-1.4-0.1-1.9,0.1c-1.5,0.5-2.3,2.1-1.8,3.6c0.5,1.5,2.1,2.3,3.6,1.8c1.5-0.5,2.3-2.1,1.8-3.6
	c-0.5-1.5-2.1-2.3-3.6-1.8c-0.5,0.2-1.2,0.8-1.5,1.2c-0.9,1.3-0.6,3,0.7,3.9c1.3,0.9,3,0.6,3.9-0.7c0.9-1.3,0.6-3-0.7-3.9
	c-1.3-0.9-3-0.6-3.9,0.7c-0.2,0.3-0.4,0.8-0.4,1c0,0.7,0.1,1.6,0.3,2c0.6,1.1,1,1.6,1.2,1.9c0.2,0.2,0.4,0.5,0.5,0.6
	c0.2,0.4,1.5,2,3.6,2.7c1.8,0.3,4.2,0.2,6.1,0c4.7-0.2,9.8-1.5,15.4-4c2.7-1.2,5-2.5,7-3.8c0.9-0.5,2-1.2,2.9-1.8
	c0.6-0.4,1.1-0.8,1.6-1.2c0.6-0.5,1.2-1,1.8-1.5c1.5-1.3,3.2-2.6,4.6-3.7c1.3-1,2.2-2,3-2.9c0.6-0.9,2.1-2.4,3.4-3.7
	c1.8-1.9,2.7-4,3.5-5.5c0.4-1,1.8-2.5,3.3-4.1c2.2-2.7,3.1-4.7,4.8-6.6c1.4-1.4,1.3-3.7-0.1-5.1c-1.4-1.4-3.7-1.3-5.1,0.1
	c-1.4,1.4-1.3,3.7,0.1,5.1c1.4,1.4,3.7,1.3,5.1-0.1c1.1-1.1,2.6-2.5,4.2-4.4c1.2-1.5,1-3.8-0.5-5c-1.5-1.2-3.8-1-5,0.5
	c-1.2,1.5-1,3.8,0.5,5s3.8,1,5-0.5c2.2-2.5,4.2-5.4,5.3-6.5c1.3-1.7,1-4.1-0.7-5.4c-1.7-1.3-4.1-1-5.4,0.7s-1,4.1,0.7,5.4
	c1.7,1.3,4.1,1,5.4-0.7c-0.2-0.6-0.6-1.1-1.1-1.5c0.9-0.8,0.9-2.1,0.2-3c-0.8-0.9-2.1-0.9-3-0.2c-0.7-0.1-1.5-0.1-2.2-0.1
	c-1,1.5-2.9,4.3-4.7,6.7c-1.3,1.5-2.5,2.6-3.8,3.9c-2.5,2.5-3.7,4.5-5.5,6.3c-1.5,1.5-3.6,3.6-4.8,5.9c-0.9,2-1,2.6-1.9,3.4
	c-1.4,1.3-3.2,3.2-4.3,4.6c-0.6,0.9-0.5,1-1.3,1.7c-1.3,1.1-3.1,2.6-4.8,4.1c-0.6,0.6-1.1,1.1-1.6,1.6c-0.4,0.4-0.7,0.7-1.1,1.1
	c-0.6,0.6-1.4,1.1-2.3,1.7c-2,1.4-3.7,2.6-6,3.7c-5.2,2.5-9.1,3.7-13.2,4c-1.9,0.2-3.5,0.2-4.4,0c-0.2,0.2-0.1,0-1.1-0.9
	c-0.5-0.4-0.5-0.4-0.6-0.4c-0.3-0.2-0.4-0.2-0.4-0.2c0.4,0.6,0.5,1,0.5,1.4c0,0.2-0.2,0.6-0.3,0.9c-0.2,0.3-0.9,0.9-1.4,1.1
	c-0.5,0.1-1.4,0.1-1.7,0.1c-0.3-0.1-0.7-0.3-0.8-0.4c1.3,1,3.2,0.8,4.2-0.5C82.8,157.1,82.5,155.2,81.2,154.2z"/>
<path d="M113,148.8c0,1.1,0.8,2.6,1.3,3.1c1.2,1.1,3.1,1,4.2-0.2c1.1-1.2,1-3.1-0.2-4.2c-1.2-1.1-3.1-1-4.2,0.2
	c-1.1,1.2-1,3.1,0.2,4.2c0.5,0.4,1.1,0.8,1.5,0.9c1.5,0.7,3.3,0,3.9-1.5c0.7-1.5,0-3.3-1.5-3.9c-1.5-0.7-3.3,0-3.9,1.5
	c-0.7,1.5,0,3.3,1.5,3.9c1.2,1,3.4,1.6,5.1,1.8c1.9,0,3.5-1.6,3.5-3.5c0-1.9-1.6-3.5-3.5-3.5s-3.5,1.6-3.5,3.5
	c0,1.9,1.6,3.5,3.5,3.5c0.5,0,1-0.1,1.6-0.1c0.5-0.1,1.3,0.2,2.9,0.4c1,0.1,1.9,0.1,2.6,0.1c1.5,0,3.1-0.2,4.5-0.6
	c3.4-1,6.7-1.9,9.8-3.3c2.1-1,3.5-2.1,4.7-2.7c0.7-0.6,1.6-1.2,2.6-1.9c0.9-0.5,2-1.2,2.8-1.9c1.3-1,1.8-1.6,2.3-1.8
	c0.8-0.7,2.5-2.1,3.9-3.8c1-1.3,1.5-1.9,2-2.4c1.7-1.7,1.7-4.4,0-6.1c-1.7-1.7-4.4-1.7-6.1,0c-1.7,1.7-1.7,4.4,0,6.1
	c1.7,1.7,4.4,1.7,6.1,0c0.8-0.9,2.9-2.5,4.6-4.5c1.5-1.6,1.4-4.2-0.3-5.6c-1.6-1.5-4.2-1.4-5.6,0.3c-1.5,1.6-1.4,4.2,0.3,5.6
	s4.2,1.4,5.6-0.3c1.5-1.7,2.4-3.1,3-4.1c1.2-2.1,0.5-4.7-1.6-5.9c-2.1-1.2-4.7-0.5-5.9,1.6c-1.2,2.1-0.5,4.7,1.6,5.9
	c2.1,1.2,4.7,0.5,5.9-1.6c0.6-2.4,4.6-6.8,5.1-8.9c0.6-1.2,0.1-2.7-1.1-3.3c-1.2-0.6-2.7-0.1-3.3,1.1c-0.5-0.1-5.6,3.7-8.2,6.7
	c-0.7,1.5-0.9,2.2-1.6,3.2c-1,1-2.9,2.2-4.6,3.5c-1.3,1.4-2,2.6-2.5,3.5c-0.8,1-2,2.1-3.1,3.2c-0.9,1.2-1,1.8-1.2,2.2
	c-0.3,0.2-0.9,0.5-1.7,1c-1.2,0.6-2.2,1.1-3.2,1.7c-1.6,1.2-2.6,2.3-3.6,2.9c-2.3,1-5.3,1.9-8.6,2.9c-0.9,0.3-1.7,0.5-2.8,0.6
	c-0.8,0-1.3,0.1-1.7,0c-0.7-0.1-1.8-0.6-3.4-0.7c-0.7,0-1.2-0.1-1.8-0.1c-1.1,0.2-1.4,0.4-2.2,0c-0.7-0.3-0.5-0.3-0.4-0.2
	c0.1,0.2,0.6,1.3,0.7,1.9c0.1-1.7-1.1-3.1-2.8-3.2C114.6,146,113.1,147.2,113,148.8z"/>
<path d="M142.9,149.2c0.5,1.1,1.5,2.2,2.5,2.9c1.4,0.9,3.2,0.6,4.1-0.8c0.9-1.4,0.6-3.2-0.8-4.1c-1.4-0.9-3.2-0.6-4.1,0.8
	c-0.9,1.4-0.6,3.2,0.8,4.1c0.9,0.6,2.5,1.3,3.9,1.5c1.6,0.3,3.1-0.8,3.4-2.4c0.3-1.6-0.8-3.1-2.4-3.4c-1.6-0.3-3.1,0.8-3.4,2.4
	c-0.3,1.6,0.8,3.1,2.4,3.4c2.5,0.4,5.2,0.7,8,0.8c1.8,0,3.2-1.4,3.2-3.2c0-1.8-1.4-3.2-3.2-3.2c-1.8,0-3.2,1.4-3.2,3.2
	c0,1.8,1.4,3.2,3.2,3.2c1.7,0.1,3.8,0.2,5.9,0.2c1.2,0,2.6-0.3,3.7-0.6c1.1-0.4,1.9-0.8,2.6-1.2c0.8-0.5,1.7-0.9,2.4-1.2
	c0.3-0.1,0.7-0.2,1.2-0.4c0.7-0.3,1.4-0.5,2-0.8c0.6-0.3,1.3-0.8,2.1-1.2c1.8-1,3.4-2.2,4.7-3.1c0.8-0.5,1.8-1.3,2.6-2
	c1.6-1.4,2.3-2.4,3.1-2.9c1.3-1.2,3.1-2.9,4.7-4.6c1.6-1.3,3.2-2.8,4.3-4.4c0.5-0.7,1.1-1.4,1.8-2.4c1.4-1.9,1-4.6-0.9-6.1
	c-1.9-1.4-4.6-1-6.1,0.9c-1.4,1.9-1,4.6,0.9,6.1c1.9,1.4,4.6,1,6.1-0.9c0.3-1,0.2-1.6,0.1-2c1.3-1.2,1.4-3.2,0.2-4.6
	c-1.2-1.3-3.2-1.4-4.6-0.2s-1.4,3.2-0.2,4.6c1.2,1.3,3.2,1.4,4.6,0.2c-0.1-0.2-0.5-0.1-0.8-0.2c1.4-0.4,2.2-1.9,1.8-3.3
	c-0.4-1.4-1.9-2.2-3.3-1.8c-1.4,0.4-2.2,1.9-1.8,3.3c0.4,1.4,1.9,2.2,3.3,1.8c-0.4-0.1-1.3-0.5-1.5-0.8c1,0.7,2.3,0.5,3-0.5
	c0.7-1,0.5-2.3-0.5-3c-0.5-0.5-1.8-0.9-2.5-0.9c-0.7,0-1.5,0.4-2,0.6c-0.9,0.4-1.9,1-2.8,1.6c-0.6,0.8-1.4,1.9-2.1,3
	c-0.5,1.1-1.1,1.9-2.4,3.2c-1.8,1.6-3.4,2.9-4.9,4.1c-1.6,1.6-2.1,2.7-2.8,3.4c-0.6,0.5-1.2,1-1.9,1.4c-1.6,1.1-2.7,2.1-3.8,2.7
	c-0.7,0.3-1.5,0.7-2.1,1c-0.4,0.2-0.6,0.3-1,0.5c-0.3,0.1-0.9,0.3-1.5,0.6c-1.3,0.7-2.6,1.5-3.6,2.2c-0.5,0.4-0.7,0.6-1,0.8
	c-0.3,0.2-0.8,0.3-1.5,0.4c-1.6,0.1-3.6,0.1-5.5,0.2c-2.6,0.1-4.9,0-7.1-0.2c-0.6-0.1-1-0.3-1.5-0.6c-0.4-0.3-0.3-0.2-0.1,0.2
	c-0.5-1.6-2.2-2.5-3.8-1.9C143.2,146,142.3,147.6,142.9,149.2z"/>
<path d="M157.6,45.7c0,10.5,0,21,0,31.4c0,2.2,1.8,4,4,4s4-1.8,4-4c0-10.5,0-21,0-31.4c0-2.2-1.8-4-4-4S157.6,43.5,157.6,45.7z"/>
<path d="M161.6,161.8L161.6,161.8c2.2,0,4-1.8,4-4c0-2.2-1.8-4-4-4l0,0c-2.2,0-4,1.8-4,4C157.6,160,159.4,161.8,161.6,161.8z"/>
<path d="M165.6,157.8c0-2.6,0-5.2,0-7.8c0-2.2-1.8-4-4-4s-4,1.8-4,4c0,2.6,0,5.2,0,7.8c0,2.2,1.8,4,4,4S165.6,160,165.6,157.8z"/>
</svg>
