<svg width="32" height="32" fill="none" xmlns="http://www.w3.org/2000/svg">
  <title>Account photo (placeholder)</title>
  <path fill-rule="evenodd" clip-rule="evenodd" d="M26.261 4.351C20.166.05 14.034-2.418 6.502 3.805a12.1 12.1 0 0 0-3.564 3.182c.34 1.705.806 3.363.375 5.145-.503 2.076-.448 3.19.861 5.034.946 1.334 1.846 2.628 2.71 4.022a46.156 46.156 0 0 1 2.28 4.129c1.077 2.201 2.352 2.955 4.754 3.229 3.72.423 7.395.462 11.1.453 7.642-5.667 10.335-18.231 1.243-24.648" fill="#E6E8EB"/>
  <mask id="a" maskUnits="userSpaceOnUse" x="0" y="6" width="25" height="26">
    <path d="M13.908 28.549c-2.4-.273-3.675-1.029-4.75-3.23a46.18 46.18 0 0 0-2.279-4.13c-.862-1.394-1.762-2.689-2.707-4.021-1.307-1.845-1.362-2.96-.86-5.036.43-1.782-.034-3.44-.375-5.146-1.92 2.542-2.906 5.8-2.88 9.044.055 6.785 6.43 13.783 12.872 15.415 3.556.902 6.888.402 9.739-1.011a15.328 15.328 0 0 0 2.329-1.432c-3.701.009-7.372-.03-11.09-.453" fill="#fff"/>
  </mask>
  <g mask="url(#a)">
    <path d="M13.908 28.549c-2.4-.273-3.675-1.029-4.75-3.23a46.18 46.18 0 0 0-2.279-4.13c-.862-1.394-1.762-2.689-2.707-4.021-1.307-1.845-1.362-2.96-.86-5.036.43-1.782-.034-3.44-.375-5.146-1.92 2.542-2.906 5.8-2.88 9.044.055 6.785 6.43 13.783 12.872 15.415 3.556.902 6.888.402 9.739-1.011a15.328 15.328 0 0 0 2.329-1.432c-3.701.009-7.372-.03-11.09-.453" fill="#D5D9E0"/>
    <path fill-rule="evenodd" clip-rule="evenodd" d="M3.252 31.609c.754-.475 1.51-.95 2.239-1.463.62-.435 1.222-.894 1.842-1.33.512-.359 1.021-.723 1.543-1.066.318-.207.657-.38 1.01-.517.584-.232 1.227-.332 1.783-.634.271-.146.502-.186.805-.186.13 0 .28-.006.402-.056.122-.049.221-.146.334-.21.192-.11.38-.076.591-.078.329-.003.595-.189.888-.31.075-.032.158-.049.238-.068.19-.046.369-.108.547-.188.293-.13.563-.313.849-.459.281-.142.564-.28.848-.417.358-.174.73-.296 1.102-.434.536-.2 1.07-.419 1.6-.634 1.014-.41 1.96-.962 2.935-1.453.892-.448 1.816-.839 2.726-1.25.351-.16.695-.344 1.052-.49.212-.087.41-.197.62-.287.461-.199.916-.402 1.383-.588.29-.115.577-.274.899-.215a.482.482 0 0 1 .306.225c.142.214.238.479.33.717.248.648.577 1.26.875 1.886.213.45.495.91.613 1.4.022.093.09.292.07.387-.011.055-.037.06-.079.09a.698.698 0 0 1-.255.095l-.288.11c-.281.114-.556.253-.835.375-.39.17-.783.33-1.168.512-.576.273-1.148.555-1.715.846-.342.175-.682.351-1.028.52-.215.105-.41.205-.642.263-.155.039-.296.08-.42.188-.208.18-.341.432-.54.622a2.726 2.726 0 0 1-.78.512c-.463.206-.985.221-1.473.343a9.57 9.57 0 0 0-1.842.685c-.343.165-.686.315-1.042.453-.31.12-.601.279-.911.403-.323.129-.654.219-.979.35-.275.11-.558.209-.845.287-.314.086-.64.101-.96.165-.576.116-1.148.281-1.677.541-.42.206-.84.44-1.274.61-.171.066-.343.131-.513.2-.263.107-.49.276-.735.418-.297.176-.62.302-.957.374-.402.082-.815.022-1.22.102-.44.082-.872.206-1.29.37-.436.173-.872.335-1.316.487-.515.175-1.046.305-1.566.463-.21.064-.438.126-.643.205-.096.036-.173.09-.281.068-.129-.026-.202-.117-.253-.232a5.648 5.648 0 0 1-.27-.834 15.581 15.581 0 0 0-.578-1.733l-.055-.14zm-16.754-6.33c.099-.03.174-.107.26-.16.216-.134.45-.245.678-.353.268-.126.508-.278.758-.438.4-.255.82-.466 1.24-.685.467-.244.914-.521 1.4-.727.223-.095.443-.2.67-.29.28-.113.571-.186.85-.307a22.75 22.75 0 0 0 1.868-.916c.533-.293 1.097-.467 1.675-.65.554-.176 1.131-.332 1.665-.561a9.66 9.66 0 0 0 1.684-.921c.641-.445 1.39-.767 2.083-1.119.4-.204.812-.377 1.224-.551.6-.253 1.188-.546 1.765-.848.514-.268 1.016-.556 1.52-.844.453-.259.921-.486 1.38-.735.384-.208.752-.444 1.138-.648.381-.202.775-.39 1.162-.58.408-.202.84-.336 1.27-.482a24.518 24.518 0 0 0 1.775-.665c.654-.282 1.289-.605 1.923-.928.31-.156.634-.274.939-.44.371-.203.728-.427 1.095-.635.33-.186.668-.357 1.003-.532.346-.182.681-.387 1.038-.547.185-.083.414-.234.619-.255.131-.014.293.029.425.043.3.031.654.06.95-.004.159-.032.31-.097.442-.19.108-.076.22-.223.346-.26.095.06.04.157.037.244-.003.097.006.199.027.293.059.262.25.487.4.704.21.305.416.577.558.92.072.175.192.313.266.492.133.317.27.62.436.921.18.328.314.672.5.998.125.216.253.436.392.642.096.143.17.29.269.432.066.096.102.209.146.316.046.107.126.227.142.344.029.216-.197.257-.365.292a3.197 3.197 0 0 0-1.009.374c-.642.381-1.253.848-1.941 1.142-.3.127-.588.242-.852.434-.342.253-.698.465-1.064.68-.305.179-.596.352-.922.492-.108.047-.215.108-.331.131-.08.017-.148.017-.224.05-.366.167-.706.431-1.06.626-.72.396-1.453.766-2.198 1.11a115.344 115.344 0 0 1-4.565 2.022c-.683.282-1.375.534-2.055.825-.66.287-1.33.547-2.011.78-.592.2-1.182.393-1.776.585-.754.242-1.487.545-2.234.808-1.436.506-2.829 1.129-4.257 1.651-.335.122-.654.276-.983.413-.344.143-.7.255-1.05.38-.397.14-.791.287-1.192.418-.508.165-1.03.282-1.537.45-.543.178-1.092.349-1.64.51-.404.118-.838.325-1.161.598-.095.08-.205.239-.337.168-.081-.044-.19-.2-.259-.267-.32-.319-.647-.643-.947-.982-.276-.313-.455-.718-.582-1.111-.077-.237-.058-.502-.146-.733-.073-.193-.108-.381-.19-.572-.03-.07-.055-.148-.09-.215-.046-.09-.12-.154-.164-.247a6.294 6.294 0 0 0-.266-.486c-.106-.179-.22-.349-.33-.524l-.28.12zm-2.204-9.083c.932-.674 1.867-1.349 2.763-2.07.762-.613 1.501-1.254 2.263-1.867.63-.505 1.255-1.016 1.9-1.502a7.006 7.006 0 0 1 1.258-.749c.732-.348 1.552-.531 2.244-.965.337-.212.631-.282 1.021-.308.169-.011.36-.031.515-.105.152-.073.272-.207.411-.299.24-.156.483-.13.756-.15.423-.03.751-.292 1.118-.473.094-.047.199-.075.3-.106.242-.075.467-.17.69-.288.367-.194.699-.45 1.055-.662.352-.206.704-.409 1.059-.608.446-.253.916-.441 1.382-.65.675-.304 1.344-.629 2.011-.95C6.312 3.83 7.484 3.042 8.7 2.328c1.112-.652 2.27-1.232 3.408-1.838.44-.235.867-.5 1.315-.719.266-.13.513-.287.775-.421.577-.294 1.147-.595 1.733-.872.364-.172.72-.402 1.14-.352.172.02.308.127.412.264.203.265.347.598.485.897.373.814.848 1.575 1.283 2.356.313.563.715 1.132.906 1.753.037.118.14.369.122.493-.01.071-.043.08-.094.122a.91.91 0 0 1-.32.143l-.362.167c-.354.17-.696.372-1.045.552-.488.251-.982.49-1.462.756-.72.4-1.433.81-2.14 1.233-.426.254-.85.51-1.281.756-.268.153-.511.297-.806.392-.197.063-.373.127-.524.276-.254.249-.405.586-.644.847a3.528 3.528 0 0 1-.963.725c-.58.304-1.252.367-1.87.564-.818.26-1.572.616-2.316 1.035-.425.24-.86.464-1.305.67-.39.181-.752.41-1.14.595-.406.194-.825.338-1.232.532-.346.165-.703.316-1.065.441-.397.137-.817.184-1.222.293-.734.197-1.457.457-2.117.836-.523.3-1.045.636-1.592.892-.214.1-.43.197-.643.3-.33.16-.609.397-.912.6a4.13 4.13 0 0 1-1.202.561c-.512.14-1.049.096-1.563.233-.56.143-1.106.339-1.63.584-.547.26-1.099.505-1.657.736-.649.269-1.322.48-1.979.728-.265.1-.553.199-.811.317-.121.055-.215.13-.357.11-.167-.023-.27-.132-.344-.277a7.322 7.322 0 0 1-.417-1.05 20.098 20.098 0 0 0-.887-2.186" fill="#B9C0C9"/>
  </g>
  <path fill-rule="evenodd" clip-rule="evenodd" d="M11.842 19.128h.046c.045.006.072-.005.072-.058-.001-.053-.005-.09-.073-.082-.037.005-.078-.005-.114.003-.02.006-.041.035-.044.057-.006.033-.018.08.045.08h.069zm4.99-1.104c.008-.094-.035-.137-.088-.1-.052.039-.114.083-.139.15-.008.02.014.052.023.079.022-.012.064-.023.064-.037.003-.055.034-.054.075-.058.027-.003.052-.026.066-.034zm-1.994.14c0-.038.007-.078-.003-.113-.006-.017-.042-.03-.066-.035-.019-.004-.041.007-.062.012.02.01.042.019.06.033.036.029.037.064 0 .091-.022.016-.057.017-.076.035-.02.017-.027.048-.039.073.024.011.048.029.073.03.11.009.111.007.113-.104v-.022zm-4.32.421c0 .015.002.03 0 .046-.005.052.005.081.071.082.07 0 .067-.036.07-.085a.61.61 0 0 1 .024-.15c.005-.015.039-.021.059-.032-.029-.005-.059-.019-.085-.013-.101.022-.137.066-.139.152zm4.585-.432c-.015 0-.031-.003-.046 0-.027.007-.075.016-.077.025a.47.47 0 0 0 .016.152c.003.01.056.012.085.007.019-.003.035-.035.052-.037.073-.002.084-.044.076-.102-.01-.076-.07-.032-.106-.046v.001zm3.079-1.022c.002.071-.029.159.104.143.054-.007.028.056.035.09l-.086.015c.029.05-.078.07-.026.13.042.047.029.084-.039.086-.054.002-.109-.004-.163.003a.085.085 0 0 0-.056.047c-.049.133-.047.134.087.137.157.003.157.003.145.18-.003.029-.004.07.013.085.063.055.01.085-.011.133-.047.108-.086.151-.185.159-.008 0-.018-.003-.023 0-.052.033-.166-.066-.16.056.003.07.102.029.156.035.044.005.072.008.07.061-.003.078.002.155-.002.233-.001.026-.01.07-.027.076-.045.015-.07-.01-.066-.061 0-.001-.035-.012-.043-.006-.133.1-.162.123-.25.114-.085-.009-.192-.013-.247-.065-.054-.05-.056-.139-.062.012-.001.056-.033.053-.073.056-.067.005-.16-.042-.172.081-.026-.003-.053-.005-.078-.012-.006-.002-.003-.029-.002-.044.003-.044-.003-.073-.059-.073-.052 0-.09.003-.083.073.002.021-.019.058-.038.064-.024.01-.082-.002-.083-.008-.006-.1-.107-.108-.155-.165-.013-.015-.018-.035-.027-.053-.006.02-.009.044-.021.06-.012.015-.037.018-.053.03-.095.069-.098.07-.05.197.023.06.01.085-.055.081-.073-.003-.138-.008-.123.104.005.037-.109.058-.126.018-.035-.085-.097-.119-.18-.12-.052-.001-.049-.033-.067-.066-.028-.052-.097-.043-.131.022-.034.061-.06.058-.095.013-.018-.022-.022-.055-.039-.076-.043-.051-.095-.046-.126.017-.032.067-.018.168-.145.147-.015-.003-.026.093-.095.091-.004 0-.01.025-.014.039-.007.028-.013.056-.018.085-.011-.023-.021-.046-.034-.069-.003-.006-.01-.015-.016-.015l-.324-.004c-.071.166-.217.069-.329.092-.079.017-.12-.004-.123-.105-.002-.043-.088-.088-.141-.123-.017-.01-.054.012-.082.019.011.024.022.068.033.068.08 0 .058.057.056.098 0 .015-.024.043-.036.042-.039-.002-.094.029-.103-.05-.007-.058-.138-.043-.094-.145.001-.001-.043-.032-.066-.032-.023 0-.06.016-.068.035-.022.052-.03.111-.05.165-.006.014-.046.032-.05.027a.142.142 0 0 1-.04-.066c-.004-.019.005-.059.014-.06.138-.024.057-.131.075-.199.003-.011-.022-.04-.037-.042-.016-.002-.042.012-.052.027-.02.03-.049.066-.045.096.014.102-.039.107-.119.112-.034.002-.08.079-.104.02-.016-.038-.075-.136.041-.166.018-.005.032-.042.038-.066.004-.02-.007-.06-.014-.06a.146.146 0 0 0-.078.014c-.059.032-.051.091-.044.142.01.072-.013.108-.084.128-.026.008-.036.06-.057.089-.041.052-.137.048-.185-.008-.012-.013-.02-.03-.03-.046-.005.013-.008.029-.018.038-.064.071-.131.137-.236.069-.075-.05-.156-.017-.167.044-.015.084-.15.076-.114.188.01.029-.024.015-.042-.016-.041-.07-.049-.067-.09-.001-.042.068-.072.14-.168.049-.024-.024-.11-.01-.149.015-.092.06-.102.019-.103-.061 0-.015-.018-.03-.027-.046l-.018.039c-.002.007 0 .015 0 .023-.01.177-.011.177-.175.165-.054-.003-.056-.03-.06-.072 0-.024-.023-.045-.036-.068-.018.018-.043.032-.053.053-.012.03.018.084-.044.085-.04 0-.094.024-.098-.055-.004-.047-.029-.046-.046 0a.237.237 0 0 1-.025.054c-.087-.03-.216.085-.269-.078-.008-.027-.075-.026-.075.032 0 .061-.002.1-.083.096-.184-.008-.369-.006-.553-.01-.074-.075-.06 0-.06.038 0 .022.007.043.02.06.046.073-.02.046-.046.05-.067.01-.126-.093-.184-.04-.053.05-.072.01-.105-.006-.074-.037-.08-.087-.02-.14.075-.064.076-.084.011-.139-.056-.048-.063-.063-.001-.088.055-.022.043-.055.043-.088 0-.019-.013-.049-.027-.053-.016-.006-.047.003-.059.017-.022.028-.029.069-.053.093-.016.015-.05.012-.077.018.001-.042-.015-.106.006-.121.044-.033.107-.038.16-.058.02-.006.035-.02.052-.032-.016-.02-.029-.043-.048-.059-.076-.067-.176-.064-.257-.042-.112.031-.103-.115-.189-.104.006-.013.014-.039.017-.038.079.015.043-.066.076-.09.032-.024.035-.044-.014-.052-.033-.006-.082-.012-.093-.035-.027-.05-.037-.108-.048-.165-.001-.007.03-.027.049-.03.03-.006.065.006.091-.005.02-.007.039-.039.04-.061.002-.016-.034-.032-.04-.051-.024-.072.006-.115.079-.116.054-.002.108 0 .162-.002.011 0 .022-.015.033-.024-.012-.007-.025-.02-.037-.02-.079-.002-.054-.062-.05-.1.001-.015.04-.028.062-.04.024-.013.07-.023.07-.034 0-.107.11-.053.15-.104.01-.012.082-.023.084.039.002.039.027.097-.053.1-.028 0-.077.008-.08.021a.314.314 0 0 0-.001.137c.003.014.052.026.078.023.02-.003.044-.026.056-.047.013-.024.014-.056.02-.084.01.023.017.05.034.067.013.013.04.018.06.018.009 0 .025-.019.026-.03.003-.047-.002-.094.002-.14.002-.02.014-.04.022-.06l.024.06c.002.007.005.018.01.019.107.021.214.048.322.058.057.005.02-.026.01-.053-.022-.059.018-.128.072-.127.017 0 .04.032.048.054.012.031-.014.09.048.08.049-.008.124.056.145-.057.008-.052.052-.046.088.007.02.03.034.07.063.088.033.023.072.02.077-.038.002-.028.003-.075.019-.082.045-.02.107.006.14-.052.008.01.02.018.025.03.047.107.067.119.187.105.016-.002.041-.022.043-.036.002-.017-.011-.042-.026-.054-.015-.013-.04-.015-.06-.021l.05-.027c.052-.026.046-.133.144-.094.04.016.11.005.122.029.034.067-.048.051-.073.078-.017.018-.02.06-.012.085.006.018.04.035.063.04.102.018.205.03.306.05.018.004.03.038.046.058.037.046.056.045.093-.009.016-.024.025-.062.046-.071.056-.023.083-.063.115-.111.043-.065-.058-.08-.025-.136.02-.033.008-.084.06-.025.009.008.027.012.04.012.07.002.16-.023.202.012.037.03.017.126.029.192.002.012.033.024.053.027.01.003.03-.01.034-.02.008-.012.005-.03.003-.046-.006-.102-.005-.197.127-.224.016-.004.022-.05.034-.077.008.026.014.054.026.077.012.022.027.05.047.058.027.01.062 0 .092.003.065.007.102-.007.095-.084-.002-.018.031-.038.048-.056.014.021.037.041.04.064.008.038-.004.079.005.116.005.02.032.047.052.05.032.004.091.019.082-.043-.014-.096.036-.1.107-.096.093.005.185 0 .279.003.011 0 .022.015.034.023-.013.008-.025.019-.038.021-.023.003-.048-.005-.07.002-.042.013-.126-.044-.118.051.003.032.069.075.111.084.067.014.139.005.209.002.015-.002.046-.028.043-.035-.027-.086.121-.157.022-.25-.004-.003.01-.037.016-.037.07-.003.139-.003.208 0 .012 0 .023.014.034.023-.012.007-.024.018-.037.02-.023.004-.06-.007-.067.003a.176.176 0 0 0-.03.097c0 .015.046.044.061.038a.676.676 0 0 0 .166-.082c.034-.024.053-.067.079-.101.06.049.14-.018.186.015.082.06.164.016.244.029.014.002.032-.036.05-.053.011-.01.035-.022.038-.02.051.058.118.014.175.03.024.008.063.027.063.04-.005.093.038.14.127.155.006.001.018.028.013.038a.098.098 0 0 1-.038.043c-.011.008-.03.003-.046.002-.058-.004-.06.038-.051.075.004.023.026.06.04.06.035.001.068-.01.095-.031a.19.19 0 0 0 .046-.095c.01-.043-.007-.115.015-.129.04-.025.101-.018.154-.019.061-.002.145-.024.18.007.085.076.136.024.16-.035.033-.082.099-.096.163-.11.06-.011.124-.006.186-.001.165.011.163.012.166-.13.002-.08-.028-.186.119-.152.027-.134.133-.083.214-.09.047-.004.098-.007.085.067.015 0 .038.007.045-.001.018-.018.022-.052.041-.065.12-.075.12-.074.147-.197.003-.013.015-.024.023-.037.007.012.02.024.021.038.005.022 0 .046.002.069.006.128.006.129.143.125.028-.001.056-.012.085-.018-.033-.01-.066-.016-.096-.029-.016-.007-.036-.028-.037-.043 0-.016.018-.043.033-.047.084-.019.12.008.152.092.008.02.038.04.06.043.015.002.035-.04.052-.038.1.009.132-.038.12-.131-.003-.019.014-.04.021-.06.008.02.01.049.025.057.029.02.062.03.096.032.015 0 .035-.037.041-.06.014-.061-.017-.08-.076-.079-.02.001-.041-.026-.062-.041.02-.017.036-.038.059-.048.052-.023.107-.039.161-.058.032-.012-.017-.086.048-.065.012.004.006.056.011.085.011.06.06.03.093.037" fill="#858D97"/>
  <path fill-rule="evenodd" clip-rule="evenodd" d="M18.701 17.596l-.092.013.083.067c.003.004-.001.015 0 .022l.022.082c.031-.015.067-.025.092-.047.018-.017.02-.052.034-.075.017-.026.07-.053-.01-.062-.03-.003-.06 0-.128 0zm3.819-1.035c-.037.016-.104.027-.107.047-.014.098.068.046.11.058.053.017.108.033.163.046.011.003.026-.009.038-.014-.012-.01-.023-.027-.038-.03-.064-.015-.063-.142-.166-.107zm.773-.127c-.023.02-.095-.034-.091.045.001.025.055.051.089.07a.14.14 0 0 0 .08.022c.021-.003.053-.027.056-.045.005-.03.024-.08-.032-.09-.03-.006-.061-.002-.102-.002zm-1.694.372c.061 0 .122-.002.183 0 .044.003.07-.006.07-.059 0-.05-.002-.09-.07-.081-.058.006-.124.016-.128-.076 0-.001-.067-.009-.071 0a.865.865 0 0 0-.056.183c-.013.078.014.094.072.033zm.9-.65c-.022 0-.046.002-.068 0-.044-.005-.073.005-.07.058.004.052-.009.11.011.155.014.031.069.044.105.065.016-.06.096-.029.123-.104.062-.163.068-.174-.101-.174zm1.031.027c.035-.051.071-.084.082-.123.011-.037-.078-.129-.107-.137-.099-.03-.066.13-.159.107-.003.014-.012.038-.008.04.057.037.116.07.742.064 0-.031.005-.056-.002-.076-.005-.017-.024-.032-.04-.04-.01-.005-.038.006-.039.011-.014.121-.107.079-.171.078-.064 0-.078.025-.075.081.002.02-.013.04-.02.06-.009-.02-.018-.038-.024-.057-.023-.065-.078-.025-.117-.032a.223.223 0 0 0-.022.066c-.014.069.029.071.08.072.035 0 .097.009.1.023.008.043.011.072.064.069.065-.004.127.014.15-.087.014-.062.152-.064-.434-.119zm-3.955 1.273c.119.056.137-.098.225-.108.003-.113.089-.069.146-.078 0 .008-.002.017.001.023.003.006.012.017.015.016.09-.043.179-.091.24.046.005.014.087.041.121-.039.025-.059.006-.096-.002-.147-.01-.073-.032-.113-.069-.081-.046.04-.11.067-.139.039-.067-.067-.142-.03-.213-.043.01-.064-.005-.105-.083-.093-.075.013-.12-.003-.104-.096.017-.09-.016-.174-.044-.259-.005-.016.013-.04.02-.06.009.018.016.037.026.055.006.012.014.032.023.035.094.017.188.037.282.046.091.009.058-.028.023-.069-.012-.013-.004-.044-.003-.067 0-.038.009-.058.048-.025.015.013.052.01.057.024.039.088.129.067.187.1.116.066.141.026.174-.071.015-.046.056-.041.088-.008.052.052.174.119.226.116.019-.002.037-.017.055-.026-.06-.061.082-.107.012-.178-.017-.018.035-.09.032-.136-.007-.09.049-.075.101-.078.062-.004.038-.055.04-.088.004-.057.069-.061.072-.043.013.08.143.081.116.182-.003.01.011.026.017.039.01-.009.026-.017.027-.026.003-.039.011-.08 0-.116-.035-.102.075-.072.103-.116a.143.143 0 0 1 .036.02c-.012.041-.028.081-.041.122-.02.063.003.097.073.121a.133.133 0 0 1 .061.045c.018.024-.028.078.033.081.01 0 .015-.061.035-.073.036-.02.067-.011.075.044.01.073.071.032.11.037.005.002.022-.047.026-.075.009-.053-.022-.066-.068-.06-.044.005-.071-.005-.072-.06 0-.053.009-.094.075-.078.09.02.05-.078.095-.099.076-.036.14-.076.115-.182-.006-.024.033-.072.063-.085.099-.046.267.005.35.098.046.05.093.048.14-.003.016-.02.033-.051.051-.053a.89.89 0 0 1 .207.006c.012.002.017.066.02.103.008.12.01.102.123.127.102.021.186-.102.283-.017.024-.05.123-.02.109-.115-.012-.076-.032-.178.113-.158.017.002.064-.072.06-.105-.008-.058-.035-.15-.073-.16-.071-.021-.059-.061-.055-.102.005-.078.067-.039.105-.045.038-.005.079.005.115-.003.021-.005.037-.033.057-.048.02-.016.042-.029.064-.043.01.018.021.036.027.055.005.014.003.03.001.046-.007.072.004.137.072.177.024.014.166-.067.208-.11.014-.014.036-.019.055-.029l.037-.022c-.052-.039-.1-.088-.157-.114-.053-.023-.08.013-.077.074 0 .02-.024.058-.041.06-.061.008-.05-.042-.05-.077 0-.03.005-.06.007-.09.088.015.069-.113.159-.114a.18.18 0 0 0 .178-.124c.014-.043.06-.089.127-.033.029.024.086.011.128.025.02.007.05.036.049.053-.008.076.029.09.095.087.014 0 .03.036.046.056-.016.011-.032.024-.049.034-.006.002-.015-.002-.023 0-.038.012-.097-.032-.113.039-.014.06.01.116.061.133.059.02.091.041.078.106-.033.007-.085-.022-.091.037-.006.044-.003.127.008.129.093.018.083.134.162.16.006.002.014 0 .022 0 .034-.005.084.018.084-.045 0-.034.02-.097-.033-.091-.132.015-.105-.07-.105-.143.082.01.123-.031.141-.11.003-.012.035-.028.051-.027.015.002.037.026.038.042.004.068.005.138.001.207-.005.084.009.15.107.168.013.003.031.032.03.048 0 .015-.028.044-.037.042-.1-.032-.105.147-.212.095l-.02.123h.032c.009-.139.115-.057.175-.076.044-.014.069.011.066.062-.004.046-.017.1.002.136.029.055.076.107.026.16-.03.032-.091.034-.138.052-.065.026-.178-.04-.188.095-.025-.008-.054-.011-.073-.026-.014-.012-.015-.04-.023-.06-.008.018-.02.035-.024.055-.015.058-.06.029-.094.035-.01-.043-.043-.113-.027-.127.079-.068-.022-.101-.02-.151.064 0 .05-.05.046-.082-.01-.076.07-.04.087-.076.008-.016 0-.058-.003-.058-.116-.017-.079-.105-.082-.172-.002-.037.006-.082-.053-.075-.07.007-.096-.019-.088-.089a.795.795 0 0 0 0-.138c-.002-.017-.018-.033-.027-.049-.006.013-.017.026-.018.039-.002.045.002.092-.002.137a.083.083 0 0 1-.03.05c-.016.014-.04.017-.06.024.018.008.038.015.055.025.058.03.055.057 0 .093-.08.056-.077.073.006.139.046.037.054.07-.01.092-.025.008-.061.042-.032.037.095-.012.045.115.119.103-.001.064-.051.036-.082.048-.023.009-.039.032-.058.049.014.014.025.03.04.042.015.011.032.019.049.028-.014.006-.029.01-.039.02-.018.017-.033.037-.05.056.024.012.046.032.07.034.07.005.14.002.209.002-.015.032-.033.063-.046.096-.025.065-.056.058-.094.012-.069-.085-.114-.085-.186-.004-.038.043-.12.05-.096.145.008.03-.102.048-.13.006-.018-.027-.006-.067-.062-.072-.048-.004-.1-.05-.142-.039-.07.018-.015.093-.036.137-.008.02-.041.043-.061.041-.064-.004-.078.023-.077.08.002.108-.044.017-.07.02a.181.181 0 0 0-.108.066c-.01.013.02.066.042.091.018.02.053.021.077.036.009.006.014.026.012.04 0 .012-.011.036-.018.036a5.811 5.811 0 0 1-.323.003c-.01 0-.026-.034-.027-.053-.004-.061.003-.124-.005-.184-.002-.016-.043-.037-.065-.037a.137.137 0 0 0-.068.032c.019.053-.059.15.069.156.008 0 .014.038.021.058-.092.023-.092.143-.178.168-.026.008-.068.005-.085-.012-.017-.015-.025-.064-.014-.082.066-.102.056-.166-.073-.186-.01-.002-.014-.024-.022-.037l-.028-.048c-.006.013-.017.026-.017.039-.002.046.002.093-.003.139-.002.017-.019.044-.033.046-.017.004-.056-.014-.055-.021.008-.073-.039-.072-.088-.069-.044.003-.091.001-.134.015-.012.004-.013.055-.012.084.002.081-.035.134-.117.131-.071-.002-.077.035-.07.085.016.087-.14.04-.104.139-.012-.012-.026-.021-.035-.034-.013-.015-.02-.035-.035-.047-.017-.012-.038-.017-.057-.025.02-.008.041-.013.06-.023.056-.028.032-.079.024-.118-.003-.012-.052-.017-.081-.02-.013-.001-.04.01-.04.012.023.163-.14.109-.2.172-.01.01-.03.01-.038.02-.014.021-.023.045-.034.069-.005-.021-.006-.056-.018-.06-.073-.029-.148-.066-.224-.069-.048-.002-.12.036-.142.076-.037.07.06.041.081.075.019.03.052.063.05.094-.002.063.027.075.078.083.009.002.017.039.017.06 0 .008-.022.023-.034.023a5.42 5.42 0 0 1-.255 0c-.012 0-.035-.02-.034-.023.079-.163-.142-.067-.142-.168 0-.094-.148-.063-.155-.165a.393.393 0 0 0-.147-.006c-.013.003-.017.067-.021.103-.009.082.005.145.104.171.052.014.046.053-.004.09-.035.025-.073.048-.099.08-.101.126-.267.144-.372.037.028-.122-.146-.084-.151-.192-.002-.035-.11-.027-.127.017-.021.053-.03.11-.05.165-.005.015-.032.026-.05.03-.01.003-.037-.014-.036-.017.032-.108-.097-.125-.117-.206-.01-.033-.061-.088-.105-.038-.027.03-.043.085.027.127.077.046.071.1.002.136-.063.032-.115.073-.2.015-.088-.06-.181.008-.262.058.012.116-.111.033-.123.08-.012.044.105.032.079.114-.012.035.002.078-.005.115-.002.014-.029.029-.047.035-.01.003-.033-.008-.037-.018-.02-.053-.041-.107-.051-.163-.008-.046.001-.093-.003-.139-.002-.018-.02-.048-.032-.049-.076-.002-.152.003-.229.005-.03.133-.137.079-.216.085-.114.008-.113.003-.127.121-.003.019-.023.036-.034.054-.035-.023-.071-.044-.102-.072-.005-.003.017-.053.023-.052.075.008.069-.041.068-.088 0-.094-.004-.187.001-.279.005-.073-.003-.141.034-.218a.29.29 0 0 0-.016-.263c-.021-.035-.014-.087-.019-.13.032-.032.06-.079.098-.09.108-.035.154-.099.134-.21-.012-.068.028-.073.081-.073.055 0 .061.028.059.072-.003.054.002.109-.003.162 0 .016-.025.045-.035.043-.137-.02-.1.078-.1.146-.001.029.012.057.018.085l.026-.075c.005-.014 0-.034.008-.043.033-.035.19-.022.224.018.012.015.018.037.026.055.007-.02.009-.05.023-.058.029-.017.066-.02.097-.034.017-.007.037-.027.038-.042.001-.016-.018-.034-.032-.049-.003-.004-.015.002-.022-.001-.042-.017-.114.045-.129-.046-.018-.111.049-.232.145-.26.011-.003.038.01.039.017.003.045-.001.092.003.138.003.035.005.089.026.101.05.03.106.046.163.045.032-.002.077-.053.085-.088.013-.06-.046-.039-.08-.046-.018-.006-.036-.017-.053-.026.02-.006.044-.009.06-.021.045-.037.048-.061-.013-.095-.065-.035-.073-.122-.024-.132.15-.03.102-.142.116-.232.003-.019.035-.034.053-.051.012.015.036.031.035.045-.004.064.005.105.085.097.017-.002.045.026.055.047.025.05.049.092.115.092.009 0 .026.037.023.054-.002.014-.027.027-.045.035-.013.006-.03.001-.046.002-.064.001-.048.051-.043.083.003.02.029.047.049.053.028.01.062 0 .092.003.014.002.026.012.038.019-.009.009-.018.025-.027.026-.069.007-.142-.023-.178.084-.011.035-.117.035-.177.06-.016.006-.018.046-.027.07.085.02.107.165.228.112.002.059-.014.117.044.166.028.026-.037.122.06.11.066-.008.02-.076.036-.113.041-.098-.08-.099-.094-.163zm-3.39-2.774c0-.062-.002-.124 0-.186.003-.055-.027-.059-.071-.06-.024-.002-.065-.023-.065-.037-.002-.037-.032-.097.047-.102.014 0 .026-.012.038-.019-.009-.008-.018-.024-.027-.025-.047-.003-.099-.015-.138.001-.113.046-.098-.12-.188-.104.002-.01.002-.031.003-.031.124-.002.067-.095.074-.152.008-.069-.002-.139.007-.207.013-.106-.01-.147-.102-.159-.034-.004-.085.021-.088-.04-.001-.038-.025-.09.052-.102.055-.008.046-.134.144-.091.007.002.022-.015.034-.023-.012-.008-.024-.02-.037-.022-.031-.003-.066-.008-.093.001-.106.039-.101-.066-.135-.11-.041-.055-.013-.115.043-.155.027-.02.076-.034.08-.055.008-.059-.004-.12-.008-.18-.13-.01-.054-.22-.208-.213-.014.002-.032-.06-.049-.09-.034-.062.04-.178-.095-.189-.027-.066 0-.159.063-.219.034-.03.03-.078-.007-.09-.056-.018-.113-.027-.166-.048-.051-.02-.05-.058 0-.091.016-.011.035-.018.053-.027-.02-.007-.045-.009-.06-.022-.015-.012-.03-.036-.027-.052.001-.015.024-.03.041-.038.013-.006.041.005.045-.002.032-.058.162-.002.139-.107-.015-.067-.093-.02-.141-.031-.028-.008-.076-.008-.081-.022-.024-.076-.072-.172-.045-.23.046-.094.045-.155-.003-.246-.034-.064.042-.056.085-.061.015-.002.028-.02.042-.03-.013-.005-.027-.016-.04-.015-.065.008-.105-.008-.092-.085.009-.05.021-.1.026-.151.006-.072.029-.156.002-.215-.027-.06-.015-.058.03-.06.016-.001.036.005.046-.002a.097.097 0 0 0 .034-.047c.003-.01-.015-.038-.016-.038-.05.019-.093-.095-.146-.007-.002.003-.015 0-.023 0-.064 0-.046-.05-.045-.083.003-.038-.029-.099.05-.102.023-.001.046-.003.07 0 .068.012.1-.01.129-.08.027-.065.088-.073.173-.043.072.027.07.104.13.123.056.016.118.02.165.05.043.028.049.076-.024.09-.014.002-.026.012-.039.018.008.01.016.023.026.027.015.004.031.004.046 0 .09-.016.136.023.192.098.09.121.102.111.103.21v.069c0 .016-.005.034.002.046.008.016.029.042.04.04.12-.025.108.065.093.126-.012.052.07.144-.063.16-.043.005-.01.037.023.042.029.004.077.005.081.019a.175.175 0 0 1-.003.107.357.357 0 0 1-.068.104c-.012.014-.038.017-.058.025.02.008.046.01.058.024.017.02.023.049.035.073.012.022.021.055.041.063.125.06.133.118.032.236-.008.009-.002.03-.002.045.073-.012.069.036.068.085-.001.062.005.124-.002.185-.008.08.012.119.1.104.011-.002.037.024.038.04.002.015-.015.037-.03.05-.078.065-.072.06-.003.142.038.044.09.134.072.16-.083.124.002.134.082.169.038.017.038.072-.011.085-.071.02-.078.004-.007.055.058.043.093.142.085.232-.005.061-.058.028-.087.042-.021.01-.035.036-.052.055.016.011.03.03.047.034.094.03.127.068.078.123-.066.074.015.105.013.155-.003.063.014.089.079.107.05.015.09.082.059.131-.05.08-.034.137-.003.221.044.121-.049.242-.055.368 0 .006-.043.005-.059.018-.035.026-.026.073.015.086.055.017.111.031.166.047.072.02.107.065.073.117-.072.108-.04.22-.032.33.007.111-.012.154-.108.157-.031 0-.063.003-.093-.001-.072-.01-.094.021-.09.09.002.015-.035.033-.053.05-.012-.015-.035-.032-.035-.046.005-.065-.014-.082-.083-.1-.07-.02-.115-.121-.215-.087-.004.002-.017-.01-.017-.011.043-.109-.116-.114-.106-.209.007-.061.002-.123.002-.185zm4.84-3.217c-.235.011-.145-.042-.142.076.012-.007.028-.011.039-.02.018-.018.035-.056.05-.054.124.016.056-.046.044-.094-.016-.064-.138-.067-.095-.164-.029-.008-.056-.019-.084-.022-.058-.006-.053.035-.055.075-.002.02-.013.04-.02.06-.009-.017-.02-.033-.025-.052-.008-.033.016-.076-.046-.085-.057-.008-.084-.048-.098-.107-.01-.047-.081-.042-.082-.01-.004.092-.063.075-.11.07-.058-.006-.032-.059-.035-.092a.293.293 0 0 1-.001-.07c.005-.046-.01-.068-.061-.07-.034-.003-.066-.038-.098-.038s-.063.03-.096.038c-.019.005-.042-.009-.063-.014.011-.016.034-.034.032-.049-.01-.079.091-.063.093-.096.003-.091.061-.063.11-.073.04-.009.055-.11.018-.128-.017-.01-.058.003-.073.02-.058.057-.148.092-.172.047-.026-.048-.058-.069-.098-.096-.017-.012-.009-.1-.002-.101.129-.026.077-.125.084-.197.005-.061-.012-.127.004-.185.015-.053.037-.095.001-.151-.005-.008.05-.063.083-.089.067-.052.079-.101.005-.135-.067-.03-.042-.071-.043-.109 0-.012.045-.035.068-.033.07.004.186-.05.163.105 0 .008.032.029.05.03.053.004.108-.005.161.004.034.005.08.025.092.052.04.089.101.132.198.134.019 0 .053.034.051.05-.006.073.024.096.093.087.058-.007.11-.005.096.08-.008.053.024.063.07.063.005 0 .02.055.01.074-.01.023-.044.034-.067.05.026.011.071.018.074.034.01.04.01.067.064.073.055.007.138.021.155.058.031.066.063.091.131.08.005-.001.015.018.02.029.001.003-.01.015-.015.015-.031.002-.063-.002-.093.003-.01.001-.023.024-.022.034.003.02.012.042.026.056.008.008.031-.004.045.002.024.01.063.025.063.039a.19.19 0 0 1-.028.098c-.012.02-.041.029-.06.046-.014.01-.022.026-.032.04-.005-.012-.012-.026-.015-.04-.003-.007.001-.016-.001-.023-.012-.038.033-.106-.037-.111-.097-.008-.052.075-.053.117a.224.224 0 0 1-.046.146c-.005.005.025.053.043.056a.763.763 0 0 0 .184 0c.018-.002.037-.034.047-.056.013-.024.018-.053.026-.079.038.021.087.035.11.068.034.046-.012.161-.07.217-.006.005.005.037.005.037.097-.011.073.062.068.107-.006.043.046.116-.048.126-.062.007-.04.054-.042.087-.006.06.038.055.076.052.052-.004.065.02.063.068-.001.043-.002.078-.058.072-.052-.004-.08.003-.085.07-.006.079-.105.106-.129.039-.023-.064-.05-.058-.095-.063-.072-.008-.15.028-.216-.042-.024-.026-.108.036-.113.082-.001.017.015.047.029.052.061.02.125.04.189.046.053.005.06.027.061.072.001.024.02.048.036.069.015.02.037.034.055.051-.021.014-.041.037-.064.04-.038.006-.067 0-.078.056-.016.08-.088.03-.135.037-.039.005-.083.02-.099-.055-.015-.066-.112-.053-.123-.017-.047.143-.152.043-.224.07-.003-.026-.01-.075-.006-.075.095-.025.116-.1.123-.18.005-.047.021-.054.064-.07.046-.018.048-.121.01-.13-.072-.015-.13-.07-.212-.054-.061.012-.035.055-.047.085-.008.023-.032.038-.049.056-.014-.013-.033-.024-.041-.042-.014-.027-.022-.059-.032-.09.078-.019-.015-.116.089-.157.123-.048.11-.082.463-.082.366.015.428 0 .411-.114 0-.005.05-.024.077-.024.054 0 .064-.027.06-.072-.003-.023.002-.066-.002-.066-.038-.005-.108-.01-.11-.002-.026.117-.117.084-.192.096a.176.176 0 0 0-.093.049c-.017.018-.024.055-.019.082.004.02.031.043.053.049.028.009.06.002-.185.002zm-9.088 1.018c.066.101.066.14.058.175-.028.113-.027.137.068.149.077.01.083.038.082.1a.432.432 0 0 1-.047.236c-.033.053-.055.057-.094.008-.061-.079-.056-.071-.141-.003-.053.041-.126.056-.191.08-.009.004-.037-.014-.036-.02.006-.04-.031-.092.032-.117l.057-.025c-.02-.007-.041-.022-.06-.02-.059.004-.086-.014-.079-.077.005-.045 0-.092.005-.137.004-.024.083-.053-.005-.066-.04-.005-.1-.02-.093.059.002.015 0 .031 0 .046.007.056-.006.088-.072.082-.061-.006-.124-.003-.185-.001-.022.001-.054.006-.06.019-.015.03-.003.083-.06.072-.072-.013-.035-.073-.038-.112-.006-.07.002-.14-.005-.209-.002-.018-.034-.037-.055-.048-.025-.013-.078-.016-.078-.025-.002-.052.008-.104.014-.156.09.027.056-.135.164-.104.072.021.044-.058.049-.096.002-.012-.013-.035-.021-.035-.02-.001-.049 0-.061.014-.022.022.003.079-.059.076-.069-.003-.141.01-.206-.008-.03-.007-.045-.07-.067-.107.018-.008.038-.026.054-.023.056.011.11.033.167.041.016.003.05-.028.053-.048.004-.031.023-.083-.039-.087-.061-.003-.124.002-.185-.002-.019-.002-.046-.017-.05-.031a.067.067 0 0 1 .02-.058c.029-.021.064-.033.095-.05.024-.011.046-.025.069-.038-.015-.025-.031-.049-.044-.075-.022-.043-.123-.005-.097-.095-.08-.057.024-.111.005-.172-.012-.038-.002-.113.02-.124.064-.03.14-.04.21-.05.012-.001.043.04.042.06-.002.06.017.081.079.079.076-.004.182-.037.159.11-.002.007.035.027.053.025.123-.008.192.06.261.152.073.096.132.177.146.284.005.037-.005.07.053.08.047.008.13.053.127.065-.019.08.063.129.054.201-.003.023 0 .046-.069.006-.09-.089-.114-.093-.135-.088-.026.005-.05.018-.075.028.017.03.027.077.052.088.045.019.098.019.149.02.01 0 .026-.03.03-.048.019-.07-.002-.09-.02 0" fill="#858D97"/>
  <path fill-rule="evenodd" clip-rule="evenodd" d="M23.32 15.724c-.044.028-.069.058-.093.057-.061-.001-.084.02-.076.08.01.076-.046.068-.088.061a.26.26 0 0 1-.118-.047c-.041-.034-.049-.072.021-.092.072-.02.042-.032-.005-.046-.066-.02-.058-.056-.01-.091.016-.013.047-.01.058-.024.023-.03-.03-.092.034-.105.011-.002.027.064.053.079.041.025.095.03.14.05.026.012.044.04.084.078zM18.213 17c.005.006.015.012.014.017-.005.047.012.079.06.065.018-.005.024-.046.034-.071.017-.046.03-.095.052-.139.008-.012.039-.017.06-.017.009 0 .025.018.026.03.002.03.003.083-.005.085-.12.026-.082.119-.088.193-.001.02-.014.04-.021.06-.008-.019-.018-.037-.023-.057-.017-.056-.061-.035-.095-.033-.04.002-.054-.008-.046-.048.006-.028.01-.057.017-.085 0-.002.01 0 .014 0" fill="#858D97"/>
</svg>
