<?xml version="1.0" encoding="utf-8"?>
<!-- Generator: Adobe Illustrator 23.0.4, SVG Export Plug-In . SVG Version: 6.00 Build 0)  -->
<svg version="1.1" id="Layer_1" xmlns="http://www.w3.org/2000/svg" xmlns:xlink="http://www.w3.org/1999/xlink" x="0px" y="0px"
	 viewBox="0 0 512 512" style="enable-background:new 0 0 512 512;" xml:space="preserve">
<path d="M256,498.7c-64.8,0-125.8-25.2-171.6-71.1C38.6,381.8,13.3,320.8,13.3,256S38.6,130.2,84.4,84.4
	C130.2,38.5,191.2,13.3,256,13.3s125.8,25.2,171.6,71.1c45.8,45.8,71.1,106.8,71.1,171.6s-25.2,125.8-71.1,171.6
	C381.8,473.5,320.8,498.7,256,498.7z M256,58.3c-52.8,0-102.4,20.6-139.8,57.9c-77.1,77.1-77.1,202.5,0,279.6
	c37.3,37.3,87,57.9,139.8,57.9c52.8,0,102.4-20.6,139.8-57.9c77.1-77.1,77.1-202.5,0-279.6l0,0C358.4,78.9,308.8,58.3,256,58.3z"/>
</svg>
