<?xml version="1.0" encoding="utf-8"?>
<!-- Generator: Adobe Illustrator 23.0.4, SVG Export Plug-In . SVG Version: 6.00 Build 0)  -->
<svg version="1.1" id="Layer_1" xmlns="http://www.w3.org/2000/svg" xmlns:xlink="http://www.w3.org/1999/xlink" x="0px" y="0px"
	 viewBox="0 0 512 512" style="enable-background:new 0 0 512 512;" xml:space="preserve">
<style type="text/css">
	.st0{fill:#FFFFFF;}
	.st1{opacity:0.5;fill:#FFFFFF;enable-background:new    ;}
</style>
<path class="st0" d="M210.7,408.3c-12.4,0-22.5-10.1-22.5-22.5V126.2c0-12.4,10.1-22.5,22.5-22.5s22.5,10.1,22.5,22.5v259.6
	C233.2,398.2,223.1,408.3,210.7,408.3z"/>
<path class="st0" d="M301.3,408.3c-12.4,0-22.5-10.1-22.5-22.5V126.2c0-12.4,10.1-22.5,22.5-22.5s22.5,10.1,22.5,22.5v259.6
	C323.8,398.2,313.7,408.3,301.3,408.3z"/>
<path class="st1" d="M256,498.7c-64.8,0-125.8-25.2-171.6-71.1C38.5,381.8,13.3,320.8,13.3,256c0-64.8,25.2-125.8,71.1-171.6
	C130.2,38.5,191.2,13.3,256,13.3c64.8,0,125.8,25.2,171.6,71.1c45.8,45.8,71.1,106.8,71.1,171.6c0,64.8-25.2,125.8-71.1,171.6
	S320.8,498.7,256,498.7z M256,58.3C147,58.3,58.3,147,58.3,256c0,109,88.7,197.7,197.7,197.7c109,0,197.7-88.7,197.7-197.7
	C453.7,147,365,58.3,256,58.3z"/>
</svg>
