<?xml version="1.0" standalone="no"?>
<!DOCTYPE svg PUBLIC "-//W3C//DTD SVG 20010904//EN"
 "http://www.w3.org/TR/2001/REC-SVG-20010904/DTD/svg10.dtd">
<svg version="1.0" xmlns="http://www.w3.org/2000/svg"
 width="700.000000pt" height="700.000000pt" viewBox="0 0 700.000000 700.000000"
 preserveAspectRatio="xMidYMid meet">
<metadata>
Created by potrace 1.11, written by Peter Selinger 2001-2013
</metadata>
<g transform="translate(0.000000,700.000000) scale(0.100000,-0.100000)"
fill="#000000" stroke="none">
<path d="M3328 6815 c-1 -1 -43 -5 -93 -8 -318 -21 -737 -121 -1002 -238 -23
-11 -44 -19 -47 -19 -17 0 -260 -125 -371 -191 -116 -68 -295 -189 -330 -222
-7 -7 -28 -23 -47 -37 -222 -167 -528 -500 -701 -762 -65 -99 -207 -340 -207
-351 0 -3 -22 -51 -49 -108 -79 -169 -149 -370 -197 -559 -27 -110 -31 -126
-39 -175 -3 -16 -10 -55 -16 -85 -5 -30 -12 -73 -15 -95 -3 -22 -7 -49 -9 -60
-11 -51 -20 -247 -19 -420 0 -215 11 -366 34 -490 5 -27 11 -63 14 -80 48
-323 219 -789 396 -1081 22 -36 40 -68 40 -70 0 -6 131 -196 179 -259 389
-515 926 -912 1521 -1125 105 -38 291 -95 340 -104 14 -2 32 -7 40 -10 8 -3
29 -7 45 -10 17 -3 80 -14 140 -24 212 -38 316 -46 550 -46 298 -1 490 20 754
79 334 76 668 210 964 389 120 72 301 195 343 234 11 10 33 28 49 41 123 95
308 277 459 452 190 221 420 607 533 899 70 178 146 438 168 570 8 48 17 101
21 125 2 11 7 43 10 70 3 28 7 56 9 62 18 55 26 497 12 668 -6 73 -41 331 -51
370 -1 6 -8 37 -15 70 -82 391 -272 824 -516 1179 -180 262 -485 577 -738 764
-404 299 -841 495 -1312 591 -55 11 -113 22 -130 25 -90 13 -179 25 -240 31
-57 6 -471 15 -477 10z m362 -619 c96 -7 161 -14 230 -26 30 -5 71 -12 90 -15
270 -45 690 -209 908 -356 24 -16 45 -29 48 -29 9 0 193 -136 269 -200 411
-344 727 -834 869 -1345 92 -334 119 -678 80 -1040 -3 -27 -7 -57 -9 -65 -2
-8 -7 -39 -10 -69 -8 -63 -57 -270 -86 -361 -194 -601 -582 -1110 -1112 -1458
-225 -147 -601 -312 -817 -356 -14 -3 -54 -12 -90 -19 -36 -8 -83 -17 -105
-21 -22 -3 -49 -7 -60 -10 -18 -3 -98 -12 -195 -22 -66 -7 -315 -6 -405 0 -76
6 -285 36 -354 51 -12 3 -30 7 -41 9 -179 40 -421 127 -600 217 -701 351
-1207 970 -1413 1729 -151 554 -107 1196 118 1730 51 121 190 387 215 410 3 3
31 43 62 90 120 179 331 408 513 555 84 68 260 195 270 195 3 0 28 15 57 33
181 115 539 263 728 302 174 36 224 46 256 50 22 3 53 7 69 9 17 2 80 7 140
11 61 4 111 8 112 9 4 3 187 -2 263 -8z"/>
<path d="M3535 5135 c-237 -41 -611 -281 -1017 -652 -97 -88 -425 -419 -503
-507 -38 -43 -75 -83 -80 -90 -10 -10 -207 -247 -242 -290 -92 -113 -354 -488
-372 -531 -2 -5 -21 -37 -41 -71 -123 -200 -144 -272 -109 -368 49 -133 195
-192 324 -131 65 31 83 53 176 216 178 310 363 556 734 978 62 70 383 390 475
473 226 202 457 372 621 454 100 51 145 58 265 41 149 -20 428 -125 699 -263
155 -78 226 -117 388 -213 65 -38 277 -176 327 -212 l55 -40 -45 5 c-25 3 -76
8 -115 11 -38 4 -81 8 -95 10 -14 3 -50 7 -80 11 -30 3 -122 19 -205 35 -223
44 -401 98 -639 195 -115 46 -137 52 -187 49 -132 -8 -222 -103 -222 -235 -1
-78 23 -132 82 -181 69 -60 489 -214 719 -264 9 -2 60 -13 112 -24 52 -11 105
-23 118 -26 l23 -6 -30 -37 c-49 -62 -85 -99 -126 -132 -38 -30 -43 -32 -100
-26 -33 3 -70 8 -81 10 -12 3 -37 7 -55 10 -19 3 -56 10 -84 16 -27 6 -63 14
-80 17 -68 13 -382 98 -550 149 -199 61 -245 65 -322 25 -147 -75 -170 -289
-42 -393 45 -36 345 -135 602 -199 26 -6 47 -14 47 -18 0 -7 -64 -60 -102 -85
-40 -26 -176 -26 -366 -1 -88 12 -281 62 -417 108 -170 57 -226 62 -294 28
-121 -62 -170 -205 -111 -321 42 -83 91 -112 306 -179 196 -61 326 -92 435
-106 30 -4 56 -8 59 -10 3 -2 46 -6 95 -10 399 -29 512 16 840 336 l140 136
70 6 c171 13 326 114 499 326 75 91 166 231 173 262 l5 26 151 0 c123 1 167 5
232 22 226 60 359 188 358 344 -1 127 -98 248 -353 441 -142 108 -305 217
-495 331 -699 420 -1234 607 -1570 550z"/>
</g>
</svg>
