<?xml version="1.0" standalone="no"?>
<!DOCTYPE svg PUBLIC "-//W3C//DTD SVG 20010904//EN"
 "http://www.w3.org/TR/2001/REC-SVG-20010904/DTD/svg10.dtd">
<svg version="1.0" xmlns="http://www.w3.org/2000/svg"
 width="700.000000pt" height="700.000000pt" viewBox="0 0 700.000000 700.000000"
 preserveAspectRatio="xMidYMid meet">
<metadata>
Created by potrace 1.11, written by Peter Selinger 2001-2013
</metadata>
<g transform="translate(0.000000,700.000000) scale(0.100000,-0.100000)"
fill="#000000" stroke="none">
<path d="M3328 6815 c-2 -1 -43 -5 -93 -8 -106 -7 -208 -21 -325 -42 -47 -9
-98 -19 -115 -22 -51 -9 -286 -72 -360 -97 -62 -21 -108 -39 -210 -79 -71 -28
-355 -173 -417 -213 -38 -24 -70 -44 -73 -44 -23 0 -342 -239 -439 -329 -526
-489 -853 -1029 -1017 -1681 -26 -104 -25 -100 -49 -240 -39 -232 -40 -252
-41 -555 0 -267 6 -372 31 -510 5 -27 11 -63 14 -80 46 -314 217 -777 401
-1091 61 -103 163 -253 250 -364 337 -435 836 -818 1320 -1014 39 -16 84 -34
100 -41 99 -43 403 -134 495 -149 19 -3 46 -8 60 -11 14 -2 36 -7 50 -10 14
-2 48 -7 75 -10 28 -4 57 -8 65 -10 8 -3 33 -7 55 -9 22 -3 63 -8 90 -11 57
-7 529 -8 590 -1 22 2 67 7 100 10 33 4 85 11 115 16 30 5 73 12 95 16 58 8
278 62 354 85 293 92 588 225 791 357 197 128 279 187 385 277 116 99 330 310
414 408 97 114 247 328 313 447 14 25 37 65 52 90 23 39 141 278 166 335 60
140 164 486 185 610 22 140 45 298 50 345 8 77 9 547 2 595 -4 22 -10 65 -13
95 -3 30 -7 64 -9 75 -1 11 -5 43 -9 70 -76 544 -358 1162 -734 1605 -75 88
-245 263 -346 355 -305 280 -749 536 -1161 668 -118 38 -205 63 -245 71 -14 2
-45 9 -70 15 -132 30 -312 58 -435 67 -78 5 -453 13 -457 9z m357 -619 c120
-8 139 -10 265 -32 141 -23 222 -43 335 -79 485 -155 860 -391 1200 -757 79
-85 81 -87 162 -194 203 -268 351 -557 443 -865 32 -105 67 -261 76 -334 3
-22 7 -50 10 -62 25 -122 26 -615 1 -738 -3 -11 -8 -45 -12 -75 -4 -30 -13
-80 -20 -110 -8 -30 -16 -66 -19 -80 -65 -337 -291 -783 -556 -1099 -279 -332
-591 -566 -1002 -749 -222 -98 -483 -173 -693 -197 -16 -2 -55 -7 -85 -12 -68
-10 -495 -11 -570 -1 -149 19 -280 42 -365 62 -46 11 -187 56 -275 89 -202 74
-326 135 -513 251 -644 398 -1099 1075 -1232 1831 -39 225 -42 622 -5 860 19
126 57 301 79 365 5 14 17 50 26 80 76 251 261 590 453 832 79 99 310 337 383
393 28 22 56 45 63 50 36 33 205 149 287 198 189 112 548 265 681 291 13 2 66
13 118 25 169 36 244 47 395 56 55 4 101 8 102 9 4 4 152 -1 268 -8z"/>
<path d="M3565 5138 c-231 -30 -566 -231 -962 -579 -153 -135 -565 -548 -658
-661 -11 -13 -42 -51 -69 -83 -27 -33 -54 -64 -60 -70 -23 -20 -175 -214 -247
-314 -104 -146 -239 -343 -247 -361 -3 -8 -25 -47 -48 -86 -65 -107 -113 -215
-116 -259 -6 -92 46 -185 125 -227 60 -32 156 -31 217 0 56 30 77 54 146 172
196 331 335 524 608 845 228 267 571 609 801 796 255 208 484 344 593 352 244
18 835 -238 1392 -601 80 -52 156 -104 170 -115 l25 -19 -56 6 c-30 4 -75 9
-100 11 -90 9 -154 16 -169 20 -8 2 -35 6 -60 9 -25 3 -56 8 -70 11 -14 3 -52
10 -85 16 -168 30 -461 119 -610 184 -181 80 -284 77 -371 -10 -86 -87 -90
-237 -7 -324 84 -87 467 -225 896 -321 l97 -22 -32 -41 c-46 -58 -118 -126
-151 -144 -19 -9 -43 -12 -70 -9 -23 3 -60 8 -82 11 -41 5 -47 6 -145 26 -65
13 -282 66 -325 79 -31 10 -228 67 -280 80 -16 5 -63 18 -104 30 -41 11 -97
22 -125 24 -172 11 -290 -179 -211 -340 14 -29 38 -62 53 -72 46 -32 232 -99
432 -156 52 -15 109 -31 126 -36 17 -6 37 -10 45 -10 8 0 23 -6 32 -12 16 -12
12 -17 -35 -54 -29 -23 -69 -45 -88 -49 -35 -8 -209 -8 -246 -1 -12 2 -45 7
-75 11 -30 4 -81 13 -114 21 -33 8 -67 16 -75 18 -53 13 -117 31 -200 58 -160
51 -173 54 -227 57 -126 6 -236 -104 -235 -234 0 -93 54 -177 137 -215 37 -16
129 -49 245 -85 148 -47 388 -97 530 -110 78 -7 257 -7 305 0 75 11 170 44
230 80 93 57 149 103 305 254 138 133 147 140 188 142 23 1 45 2 50 3 4 1 25
5 47 10 60 12 152 57 221 109 124 94 298 303 368 443 l26 51 132 1 c153 2 192
6 267 28 152 44 284 146 317 246 23 72 15 162 -21 225 -52 89 -197 221 -440
399 -91 67 -407 265 -550 344 -22 12 -58 33 -80 45 -287 164 -740 350 -925
380 -19 3 -42 7 -50 10 -63 16 -225 23 -305 13z"/>
</g>
</svg>
