<?xml version="1.0" encoding="utf-8"?>
<!-- Generator: Adobe Illustrator 23.0.4, SVG Export Plug-In . SVG Version: 6.00 Build 0)  -->
<svg version="1.1" id="Layer_1" xmlns="http://www.w3.org/2000/svg" xmlns:xlink="http://www.w3.org/1999/xlink" x="0px" y="0px"
	 viewBox="0 0 512 512" style="enable-background:new 0 0 512 512;" xml:space="preserve">
<style type="text/css">
	.st0{opacity:0.5;fill:#FFFFFF;enable-background:new    ;}
	.st1{fill:#FFFFFF;}
</style>
<path class="st0" d="M256,498.7c-64.8,0-125.8-25.2-171.6-71.1C38.5,381.8,13.3,320.8,13.3,256c0-64.8,25.2-125.8,71.1-171.6
	C130.2,38.5,191.2,13.3,256,13.3c64.8,0,125.8,25.2,171.6,71.1c45.8,45.8,71.1,106.8,71.1,171.6c0,64.8-25.2,125.8-71.1,171.6
	S320.8,498.7,256,498.7z M256,58.3C147,58.3,58.3,147,58.3,256c0,109,88.7,197.7,197.7,197.7c109,0,197.7-88.7,197.7-197.7
	C453.7,147,365,58.3,256,58.3z"/>
<path class="st1" d="M347.1,368.6c-5.8,0-11.5-2.2-15.9-6.6L147,177.8c-8.8-8.8-8.8-23,0-31.8c8.8-8.8,23-8.8,31.8,0L363,330.2
	c8.8,8.8,8.8,23,0,31.8C358.6,366.4,352.9,368.6,347.1,368.6z"/>
<path class="st1" d="M162.9,368.6c-5.8,0-11.5-2.2-15.9-6.6c-8.8-8.8-8.8-23,0-31.8L331.2,146c8.8-8.8,23-8.8,31.8,0
	c8.8,8.8,8.8,23,0,31.8L178.8,362C174.4,366.4,168.7,368.6,162.9,368.6z"/>
</svg>
