<?xml version="1.0" encoding="utf-8"?>
<!-- Generator: Adobe Illustrator 23.0.4, SVG Export Plug-In . SVG Version: 6.00 Build 0)  -->
<svg version="1.1" id="Layer_1" xmlns="http://www.w3.org/2000/svg" xmlns:xlink="http://www.w3.org/1999/xlink" x="0px" y="0px"
	 viewBox="0 0 512 512" style="enable-background:new 0 0 512 512;" xml:space="preserve">
<style type="text/css">
	.st0{fill:#FFFFFF;}
</style>
<path class="st0" d="M138.3,295l-29-1.4c3.3-67.9,27.1-117.4,70.6-147l1.9-1.3l16.2-4.6l8,27.9l-11.7,3.3
	c-16.7,11.8-29.9,27.7-39.1,47.1C145.5,239.8,139.7,265.3,138.3,295z"/>
<polygon class="st0" points="202.9,209.8 290.7,128.9 173.3,107.2 "/>
<path class="st0" d="M311,372.8l-8-27.9l11.7-3.3c16.7-11.8,29.9-27.7,39.1-47.1c9.9-20.8,15.6-46.4,17-76l29,1.4
	c-3.3,67.9-27.1,117.4-70.6,147l-1.9,1.3L311,372.8z"/>
<polygon class="st0" points="306.2,303.6 218.4,384.5 335.8,406.2 "/>
<path class="st0" d="M256,498.7c-64.8,0-125.8-25.2-171.6-71.1C38.5,381.8,13.3,320.8,13.3,256c0-64.8,25.2-125.8,71.1-171.6
	C130.2,38.5,191.2,13.3,256,13.3c64.8,0,125.8,25.2,171.6,71.1c45.8,45.8,71.1,106.8,71.1,171.6c0,64.8-25.2,125.8-71.1,171.6
	S320.8,498.7,256,498.7z M256,58.3C147,58.3,58.3,147,58.3,256c0,109,88.7,197.7,197.7,197.7c109,0,197.7-88.7,197.7-197.7
	C453.7,147,365,58.3,256,58.3z"/>
</svg>
