<?xml version="1.0" encoding="utf-8"?>
<!-- Generator: Adobe Illustrator 23.0.4, SVG Export Plug-In . SVG Version: 6.00 Build 0)  -->
<svg version="1.1" xmlns="http://www.w3.org/2000/svg" xmlns:xlink="http://www.w3.org/1999/xlink" x="0px" y="0px"
	 viewBox="0 0 512 512" style="enable-background:new 0 0 512 512;" xml:space="preserve">
<style type="text/css">
	.st0{opacity:0.5;fill:#FFFFFF;enable-background:new    ;}
	.st1{opacity:0.5;}
	.st2{fill:#FFFFFF;}
	.st3{display:none;}
	.st4{display:inline;}
	.st5{font-family:'MyriadPro-Regular';}
	.st6{font-size:12px;}
</style>
<g id="Layer_1">
	<path class="st0" d="M256,498.7c-64.8,0-125.8-25.2-171.6-71.1C38.5,381.8,13.3,320.8,13.3,256S38.5,130.2,84.4,84.4
		C130.2,38.5,191.2,13.3,256,13.3s125.8,25.2,171.6,71.1c45.8,45.8,71.1,106.8,71.1,171.6s-25.2,125.8-71.1,171.6
		S320.8,498.7,256,498.7z M256,58.3C147,58.3,58.3,147,58.3,256S147,453.7,256,453.7S453.7,365,453.7,256S365,58.3,256,58.3z"/>
	<g class="st1">
		<path class="st2" d="M101.9,331.4c-2.7,0-5.5-0.6-8.1-2c-8.6-4.5-11.9-15-7.4-23.6c26.4-50.6,73.1-100.7,108-130.7
			c17.1-14.7,41.6-33.2,60.7-38.1c21.7-5.4,55.8,4.6,101.5,29.8c30.1,16.6,65.5,40.6,74.8,54.2c7.4,10.9,3.2,19.7,1.1,22.9l0,0
			c-8.4,12.8-28.6,17.3-43.8,16.1c-1.5-0.1-3.2-0.2-5-0.4c-21.5-1.5-61.5-4.4-107-24.9c-8.8-4-12.7-14.3-8.7-23.2
			c4-8.8,14.3-12.7,23.2-8.7c37.7,17,70.7,20.1,91.7,21.7c-11.1-8-26.3-17.8-43.8-27.4c-54.6-30-73.3-26.6-75.2-26.1
			c-7.3,1.9-23.4,10.9-46.5,30.7c-30.9,26.6-75.6,74.1-99.8,120.3C114.3,328,108.2,331.4,101.9,331.4z M403.2,224.8L403.2,224.8
			L403.2,224.8z"/>
		<path class="st2" d="M328.4,305c-3.4,0-6.6-0.3-9.5-0.7c-19.4-2.6-44.5-8.9-76.7-19.2c-9.2-2.9-14.3-12.8-11.4-22
			c2.9-9.2,12.8-14.3,22-11.4c30.2,9.6,53.4,15.5,70.7,17.8c4.2,0.6,5.8,0.4,6.3,0.3c5-2.9,13.2-12.4,19.6-22.8
			c5.1-8.2,15.8-10.8,24.1-5.8c8.2,5.1,10.8,15.8,5.8,24.1c-4.9,8-17.9,27.4-33.3,35.6c-0.1,0-0.1,0.1-0.2,0.1
			C340.2,304,334.1,305,328.4,305z M330.2,269.8L330.2,269.8L330.2,269.8z"/>
		<path class="st2" d="M266.5,340.4c-2.4,0-4.8-0.1-7.4-0.2c-18.3-1.2-40.9-6.5-60.5-14.2c-9-3.5-13.4-13.7-9.9-22.7
			s13.7-13.4,22.7-9.9c16.5,6.4,35.1,10.9,50,11.8c7.5,0.5,11.8-0.1,14-0.6c3-1.8,12.4-9.4,26.4-24.6c6.6-7.1,17.6-7.5,24.7-1
			c7.1,6.6,7.5,17.6,1,24.7c-18.4,20-32.4,31.5-41.4,34.2H286C280.4,339.6,274,340.4,266.5,340.4z"/>
	</g>
</g>
<g id="nyt_x5F_exporter_x5F_info" class="st3">
	<text transform="matrix(1 0 0 1 0 512)" class="st4"><tspan x="0" y="0" class="st5 st6">&lt;nyt_prefs&gt;</tspan><tspan x="0" y="14.4" class="st5 st6">  &lt;nyt_prefix/&gt;</tspan><tspan x="0" y="28.8" class="st5 st6">  &lt;nyt_suffix/&gt;</tspan><tspan x="0" y="43.2" class="st5 st6">  &lt;nyt_base_path&gt;~/Desktop&lt;/nyt_base_path&gt;</tspan><tspan x="0" y="57.6" class="st5 st6">  &lt;nyt_scaling&gt;100%&lt;/nyt_scaling&gt;</tspan><tspan x="0" y="72" class="st5 st6">  &lt;nyt_transparency&gt;true&lt;/nyt_transparency&gt;</tspan><tspan x="0" y="86.4" class="st5 st6">  &lt;nyt_format&gt;PNG 24&lt;/nyt_format&gt;</tspan><tspan x="0" y="100.8" class="st5 st6">  &lt;nyt_export_code&gt;artboards&lt;/nyt_export_code&gt;</tspan><tspan x="0" y="115.2" class="st5 st6">&lt;/nyt_prefs&gt;</tspan></text>
</g>
</svg>
