<?xml version="1.0" encoding="utf-8"?>
<!-- Generator: Adobe Illustrator 24.0.1, SVG Export Plug-In . SVG Version: 6.00 Build 0)  -->
<svg version="1.1" id="Layer_1" xmlns="http://www.w3.org/2000/svg" xmlns:xlink="http://www.w3.org/1999/xlink" x="0px" y="0px"
	 viewBox="0 0 512 512" style="enable-background:new 0 0 512 512;" xml:space="preserve">
<path d="M276.7,234.7c1.7,0.8,3.4,1.5,5.1,2.2c8.1-9.5,17.4-17.4,27.8-23.6c1.1-0.7,2.2-1.3,3.4-1.9c-7-2.4-14.3-5.2-21.8-8.5
	c-8.9-4.1-19.2-0.2-23.2,8.6C264,220.4,267.9,230.7,276.7,234.7z"/>
<path d="M263.9,171c1.9-0.5,20.6-3.9,75.2,26.1c1.7,0.9,3.3,1.8,4.9,2.7c10.4-2.3,21.5-3.5,33.3-3.5c10.6,0,20.7,1,30.2,2.9
	c-14.8-11-33.7-22.9-50.9-32.4c-45.7-25.2-79.8-35.2-101.5-29.8c-19.1,4.9-43.6,23.4-60.7,38.1c-34.9,30-81.6,80.1-108,130.7
	c-4.5,8.6-1.2,19.1,7.4,23.6c2.6,1.4,5.4,2,8.1,2c6.3,0,12.4-3.4,15.7-9.4c24.2-46.2,68.9-93.7,99.8-120.3
	C240.5,181.9,256.6,172.9,263.9,171z"/>
<g>
	<path d="M374.7,496.1c-29.6,0-42-21.2-43.7-41.1c-0.2-2.5,0.6-5,2.3-6.9c1.7-1.9,3.9-1.5,6.4-1.5l70.1,0.1c2.5,0,4.5-0.4,6.2,1.4
		c1.7,1.9,2.6,4.4,2.3,6.9C416.7,474.9,404.3,496.1,374.7,496.1z"/>
	<path d="M243,421c0-0.7,0.5-1.2,1.2-1.3c15.1-1.1,19.5-24.1,25.3-61.1c8.7-55.8,20.7-132.3,107.8-132.3c86.5,0,98.1,75.7,106.6,131
		c5.8,37.6,10.3,61.1,26.4,62.3c0.7,0.1,1.2,0.6,1.2,1.4c0,2.7,0,8.6,0,11.3c0,0.8-0.6,1.4-1.4,1.4H244.3c-0.7,0-1.3-0.6-1.3-1.3
		V421z"/>
</g>
<path d="M301.9,463.7h-57.6c-10.7,0-20.2-5.4-25.8-13.6c-38.5-7.4-74-26-102.3-54.3c-77.1-77.1-77.1-202.5,0-279.6
	c37.4-37.3,87-57.9,139.8-57.9s102.4,20.6,139.8,57.9c28.5,28.5,46.4,63.5,53.8,100.2c14.6,9.8,26.7,23.1,36.2,39.7
	c4.6,8,8.4,16.5,11.5,25.1c0.9-8.3,1.3-16.7,1.3-25.2c0-64.8-25.3-125.8-71.1-171.6C381.8,38.5,320.8,13.3,256,13.3
	S130.2,38.5,84.4,84.4C38.6,130.2,13.3,191.2,13.3,256s25.3,125.8,71.1,171.6c45.8,45.9,106.8,71.1,171.6,71.1
	c19.1,0,37.9-2.2,56.1-6.5C307,483.7,303.5,474,301.9,463.7z"/>
<path d="M242.2,285.1c4,1.3,7.9,2.5,11.7,3.7c3.6-11,8.2-21.9,14.1-32.2c0-0.1,0.1-0.2,0.1-0.2c-4.9-1.5-10.1-3-15.4-4.8
	c-9.1-2.8-19,2.3-21.9,11.5C227.9,272.3,233,282.2,242.2,285.1z"/>
<path d="M249.5,303.9c-12.3-1.9-25.7-5.7-38.1-10.5c-9-3.5-19.2,0.9-22.7,9.9s0.9,19.2,9.9,22.7c13.9,5.5,29.4,9.8,43.8,12.2
	C244.2,327.2,246.4,315.6,249.5,303.9z"/>
</svg>
