<?xml version="1.0" encoding="utf-8"?>
<!-- Generator: Adobe Illustrator 24.0.1, SVG Export Plug-In . SVG Version: 6.00 Build 0)  -->
<svg version="1.1" id="Layer_1" xmlns="http://www.w3.org/2000/svg" xmlns:xlink="http://www.w3.org/1999/xlink" x="0px" y="0px"
	 viewBox="0 0 512 512" style="enable-background:new 0 0 512 512;" xml:space="preserve">
<style type="text/css">
	.st0{fill:#FFFFFF;}
</style>
<g>
	<path class="st0" d="M268,211.5c-4,8.9-0.1,19.2,8.7,23.2c5,2.3,10,4.3,14.9,6.2c10-11.1,21.9-19.5,35.5-25.2
		c-11.3-3-23.3-7.2-35.9-12.8C282.3,198.8,272,202.7,268,211.5z"/>
	<path class="st0" d="M230.8,263.1c-2.9,9.2,2.2,19.1,11.4,22c7.5,2.4,14.6,4.6,21.3,6.5c3.4-10.4,7.7-20.6,13.1-30.1
		c0.4-0.8,0.9-1.5,1.3-2.3c-7.8-2.2-16.2-4.7-25.2-7.6C243.6,248.8,233.7,253.9,230.8,263.1z"/>
	<path class="st0" d="M259.5,305.1c-14.6-1.1-32.3-5.5-48.1-11.7c-9-3.5-19.2,0.9-22.7,9.9s0.9,19.2,9.9,22.7
		c17.2,6.8,36.8,11.7,53.7,13.6C254.2,328.5,256.4,316.8,259.5,305.1z"/>
	<path class="st0" d="M217.4,201.7c23.1-19.8,39.2-28.8,46.5-30.7c1.9-0.5,20.6-3.9,75.2,26.1c6.4,3.5,12.5,7,18.2,10.5
		c6.4-0.9,13.1-1.3,20-1.3c18.4,0,34.9,3,49.3,9c-13.5-13.9-43.8-34-70-48.5c-45.7-25.2-79.8-35.2-101.5-29.8
		c-19.1,4.9-43.6,23.4-60.7,38.1c-34.9,30-81.6,80.1-108,130.7c-4.5,8.6-1.2,19.1,7.4,23.6c2.6,1.4,5.4,2,8.1,2
		c6.3,0,12.4-3.4,15.7-9.4C141.8,275.8,186.5,228.3,217.4,201.7z"/>
</g>
<g>
	<path class="st0" d="M374.7,496.1c-29.6,0-42-21.2-43.7-41.1c-0.2-2.5,0.6-5,2.3-6.9c1.7-1.9,3.9-1.5,6.4-1.5l70.1,0.1
		c2.5,0,4.5-0.4,6.2,1.4c1.7,1.9,2.6,4.4,2.3,6.9C416.7,474.9,404.3,496.1,374.7,496.1z"/>
	<path class="st0" d="M243,421c0-0.7,0.5-1.2,1.2-1.3c15.1-1.1,19.5-24.1,25.3-61.1c8.7-55.8,20.7-132.3,107.8-132.3
		c86.5,0,98.1,75.7,106.6,131c5.8,37.6,10.3,61.1,26.4,62.3c0.7,0.1,1.2,0.6,1.2,1.4c0,2.7,0,8.6,0,11.3c0,0.8-0.6,1.4-1.4,1.4
		H244.3c-0.7,0-1.3-0.6-1.3-1.3V421z"/>
</g>
<path class="st0" d="M311.1,456.7v-0.1c-0.1-1-0.1-1.9-0.1-2.9h-66.7c-1.9,0-3.8-0.3-5.5-0.8c-46.3-4-89.4-23.9-122.6-57.1
	c-77.1-77.1-77.1-202.5,0-279.6c37.4-37.3,87-57.9,139.8-57.9s102.4,20.6,139.8,57.9c32.1,32.1,50.8,72.6,56.2,114.4
	c9.8,8.1,18.2,18.3,25.2,30.5c7.6,13.3,12.9,28,16.8,42.8c3.1-15.6,4.7-31.6,4.7-47.9c0-64.8-25.3-125.8-71.1-171.6
	C381.8,38.5,320.8,13.3,256,13.3S130.2,38.5,84.4,84.4C38.6,130.2,13.3,191.2,13.3,256s25.3,125.8,71.1,171.6
	c45.8,45.9,106.8,71.1,171.6,71.1c22.7,0,45-3.1,66.3-9.1C316,480.2,312.1,468.8,311.1,456.7z"/>
</svg>
