<?xml version="1.0" encoding="UTF-8" standalone="no"?>
<!-- Generator: Adobe Illustrator 23.0.4, SVG Export Plug-In . SVG Version: 6.00 Build 0)  -->

<svg
   xmlns:dc="http://purl.org/dc/elements/1.1/"
   xmlns:cc="http://creativecommons.org/ns#"
   xmlns:rdf="http://www.w3.org/1999/02/22-rdf-syntax-ns#"
   xmlns:svg="http://www.w3.org/2000/svg"
   xmlns="http://www.w3.org/2000/svg"
   xmlns:sodipodi="http://sodipodi.sourceforge.net/DTD/sodipodi-0.dtd"
   xmlns:inkscape="http://www.inkscape.org/namespaces/inkscape"
   version="1.1"
   id="Layer_1"
   x="0px"
   y="0px"
   viewBox="0 0 16 16"
   xml:space="preserve"
   sodipodi:docname="menubar_icon_idle-symbolic.svg"
   inkscape:version="0.92.4 (33fec40, 2019-01-16)"
   width="16"
   height="16"><metadata
   id="metadata11"><rdf:RDF><cc:Work
       rdf:about=""><dc:format>image/svg+xml</dc:format><dc:type
         rdf:resource="http://purl.org/dc/dcmitype/StillImage" /><dc:title /></cc:Work></rdf:RDF></metadata><defs
   id="defs9" /><sodipodi:namedview
   pagecolor="#ffffff"
   bordercolor="#666666"
   borderopacity="1"
   objecttolerance="10"
   gridtolerance="10"
   guidetolerance="10"
   inkscape:pageopacity="0"
   inkscape:pageshadow="2"
   inkscape:window-width="2746"
   inkscape:window-height="1689"
   id="namedview7"
   showgrid="false"
   inkscape:zoom="14.75"
   inkscape:cx="-29.898306"
   inkscape:cy="8"
   inkscape:window-x="134"
   inkscape:window-y="55"
   inkscape:window-maximized="1"
   inkscape:current-layer="Layer_1"
   units="pt" />
<style
   type="text/css"
   id="style2">
	.st0{fill:#DFDBD2;}
</style>
<path
   class="st0"
   d="M 8,16 C 5.8947368,16 3.8947368,15.157895 2.3157895,13.684211 0.8421053,12.105263 0,10.105263 0,8 0,5.8947368 0.8421053,3.8947368 2.3157895,2.3157895 3.8947368,0.84210526 5.8947368,0 8,0 10.105263,0 12.105263,0.84210526 13.684211,2.3157895 15.157895,3.8947368 16,5.8947368 16,8 16,10.105263 15.157895,12.105263 13.684211,13.684211 12.105263,15.157895 10.105263,16 8,16 Z M 8,1.4736842 c -1.6842105,0 -3.3684211,0.631579 -4.6315789,1.8947369 -2.5263158,2.5263157 -2.5263158,6.7368419 0,9.2631579 C 4.6315789,13.894737 6.2105263,14.526316 8,14.526316 c 1.789474,0 3.368421,-0.631579 4.631579,-1.894737 2.526316,-2.526316 2.526316,-6.631579 0,-9.1578948 v 0 c -1.263158,-1.2631579 -2.842105,-2 -4.631579,-2 z"
   id="path4"
   style="fill:#bebebe;fill-opacity:1;stroke-width:1.0526315"
   inkscape:connector-curvature="0" />
</svg>